<svg width="615" height="448" viewBox="0 0 615 448" fill="none" xmlns="http://www.w3.org/2000/svg">
<g clip-path="url(#clip0_552_8030)">
<path d="M358.236 78.8524C369.763 78.8524 379.107 69.5085 379.107 57.9823C379.107 46.4561 369.763 37.1123 358.236 37.1123C346.71 37.1123 337.366 46.4561 337.366 57.9823C337.366 69.5085 346.71 78.8524 358.236 78.8524Z" fill="#F2F2F2"/>
<path d="M520.132 388.587C551.153 364.96 565.969 325.256 556.694 287.381C556.463 286.439 556.22 285.501 555.964 284.564C549.814 262.081 534.601 240.714 512.427 233.53C493.809 227.498 473.487 232.137 454.064 229.738C415.935 225.03 386.374 194.179 365.575 161.878C344.775 129.577 328.79 93.4203 301.152 66.7349C255.595 22.7486 181.28 13.2783 124.796 41.9101C68.3117 70.542 32.3319 134.064 33.8663 197.372C35.4008 260.68 72.9839 321.207 127.564 353.32C147.614 365.117 170.805 373.474 193.884 370.55C213.909 368.013 232.104 357.253 252.036 354.058C283.372 349.036 314.509 363.204 341.612 379.714C368.716 396.224 394.896 415.794 425.695 423.448C455.601 430.88 492.652 409.518 520.132 388.587Z" fill="#F2F2F2"/>
<path d="M475.562 43.2396C474.882 42.7863 474.195 42.3564 473.514 41.9187C453.857 29.3468 432.788 19.1335 410.742 11.4899L405.63 82.0083H373.224V1.19589C371.184 0.77381 369.128 0.375181 367.072 0V82.0083H328.562C307.361 82.0083 287.029 73.5864 272.038 58.5954C257.047 43.6043 248.625 23.272 248.625 2.0714C246.561 2.51693 244.513 2.99365 242.465 3.50171V82.0084H211.099L206.229 14.765C183.573 23.4538 162.065 34.88 142.183 48.7892C141.839 49.0237 141.495 49.266 141.159 49.5005C139.431 50.712 137.727 51.947 136.031 53.1976V322.226H228.474L226.841 299.598L217.852 175.358H398.869L389.88 299.598L388.247 322.226H479.666V45.9597C478.306 45.0374 476.938 44.1307 475.562 43.2396ZM242.466 154.84H216.367L211.544 88.1676H242.466V154.84ZM367.073 154.84H323.239V153.519C323.239 152.884 323.114 152.256 322.87 151.669C322.627 151.083 322.271 150.55 321.821 150.101C321.372 149.652 320.839 149.297 320.252 149.054C319.665 148.812 319.036 148.688 318.401 148.689H299.344C298.71 148.689 298.082 148.814 297.496 149.056C296.91 149.299 296.377 149.655 295.928 150.103C295.48 150.552 295.124 151.084 294.881 151.671C294.639 152.257 294.514 152.885 294.514 153.519V154.84H248.625V88.1676H367.073V154.84ZM373.224 154.84V88.1676H405.185L400.362 154.84H373.224Z" fill="#565A58"/>
<path d="M0 339.453C6.79019 347.499 14.1346 355.06 21.9794 362.082L593.021 362.863C600.865 355.842 608.21 348.281 615 340.235L0 339.453Z" fill="#3F3D56"/>
<path d="M387.242 266.997V333.986C387.242 334.839 387.582 335.658 388.185 336.262C388.789 336.865 389.608 337.205 390.461 337.205H489.731C490.585 337.205 491.404 336.865 492.007 336.262C492.611 335.658 492.95 334.839 492.951 333.986V266.997C492.949 266.144 492.609 265.327 492.006 264.724C491.402 264.121 490.584 263.782 489.731 263.781H390.461C389.608 263.782 388.791 264.121 388.187 264.724C387.584 265.327 387.244 266.144 387.242 266.997Z" fill="#3F3D56"/>
<path d="M389.57 267.831V333.159C389.571 333.615 389.753 334.053 390.075 334.375C390.398 334.698 390.835 334.879 391.291 334.88H488.905C489.361 334.879 489.798 334.698 490.121 334.375C490.443 334.053 490.625 333.615 490.626 333.159V267.831C490.626 267.374 490.444 266.936 490.122 266.613C489.799 266.289 489.362 266.107 488.905 266.106H391.291C390.834 266.107 390.397 266.289 390.074 266.613C389.752 266.936 389.57 267.374 389.57 267.831Z" fill="#565A58"/>
<path d="M385.165 347.05C385.347 347.278 385.578 347.462 385.841 347.588C386.105 347.714 386.393 347.778 386.684 347.777H492.979C493.27 347.777 493.557 347.711 493.819 347.586C494.082 347.461 494.313 347.279 494.496 347.053C494.679 346.827 494.81 346.564 494.878 346.281C494.946 345.999 494.951 345.704 494.891 345.42L493.241 337.582C493.173 337.263 493.026 336.965 492.813 336.717C492.6 336.469 492.329 336.278 492.023 336.161C491.802 336.075 491.567 336.03 491.329 336.031H388.328C388.09 336.03 387.855 336.075 387.634 336.161C387.328 336.278 387.057 336.469 386.844 336.717C386.632 336.965 386.484 337.263 386.416 337.582L384.766 345.42C384.707 345.704 384.713 345.998 384.782 346.28C384.851 346.562 384.982 346.825 385.165 347.05Z" fill="#624549"/>
<path d="M487.682 339.406H490.193C490.404 339.406 490.575 339.235 490.575 339.025V337.824C490.575 337.613 490.404 337.442 490.193 337.442H487.682C487.472 337.442 487.301 337.613 487.301 337.824V339.025C487.301 339.235 487.472 339.406 487.682 339.406Z" fill="#3F3D56"/>
<path d="M481.135 339.406H483.645C483.856 339.406 484.027 339.235 484.027 339.025V337.824C484.027 337.613 483.856 337.442 483.645 337.442H481.135C480.924 337.442 480.753 337.613 480.753 337.824V339.025C480.753 339.235 480.924 339.406 481.135 339.406Z" fill="#3F3D56"/>
<path d="M474.587 339.406H477.097C477.308 339.406 477.479 339.235 477.479 339.025V337.824C477.479 337.613 477.308 337.442 477.097 337.442H474.587C474.376 337.442 474.205 337.613 474.205 337.824V339.025C474.205 339.235 474.376 339.406 474.587 339.406Z" fill="#3F3D56"/>
<path d="M468.039 339.406H470.55C470.761 339.406 470.932 339.235 470.932 339.025V337.824C470.932 337.613 470.761 337.442 470.55 337.442H468.039C467.829 337.442 467.658 337.613 467.658 337.824V339.025C467.658 339.235 467.829 339.406 468.039 339.406Z" fill="#3F3D56"/>
<path d="M461.492 339.406H464.002C464.213 339.406 464.384 339.235 464.384 339.025V337.824C464.384 337.613 464.213 337.442 464.002 337.442H461.492C461.281 337.442 461.11 337.613 461.11 337.824V339.025C461.11 339.235 461.281 339.406 461.492 339.406Z" fill="#3F3D56"/>
<path d="M454.944 339.406H457.455C457.665 339.406 457.836 339.235 457.836 339.025V337.824C457.836 337.613 457.665 337.442 457.455 337.442H454.944C454.733 337.442 454.562 337.613 454.562 337.824V339.025C454.562 339.235 454.733 339.406 454.944 339.406Z" fill="#3F3D56"/>
<path d="M448.396 339.406H450.907C451.118 339.406 451.289 339.235 451.289 339.025V337.824C451.289 337.613 451.118 337.442 450.907 337.442H448.396C448.186 337.442 448.015 337.613 448.015 337.824V339.025C448.015 339.235 448.186 339.406 448.396 339.406Z" fill="#3F3D56"/>
<path d="M441.848 339.406H444.359C444.57 339.406 444.741 339.235 444.741 339.025V337.824C444.741 337.613 444.57 337.442 444.359 337.442H441.848C441.638 337.442 441.467 337.613 441.467 337.824V339.025C441.467 339.235 441.638 339.406 441.848 339.406Z" fill="#3F3D56"/>
<path d="M435.301 339.406H437.812C438.022 339.406 438.193 339.235 438.193 339.025V337.824C438.193 337.613 438.022 337.442 437.812 337.442H435.301C435.09 337.442 434.919 337.613 434.919 337.824V339.025C434.919 339.235 435.09 339.406 435.301 339.406Z" fill="#3F3D56"/>
<path d="M428.753 339.406H431.264C431.475 339.406 431.646 339.235 431.646 339.025V337.824C431.646 337.613 431.475 337.442 431.264 337.442H428.753C428.542 337.442 428.372 337.613 428.372 337.824V339.025C428.372 339.235 428.542 339.406 428.753 339.406Z" fill="#3F3D56"/>
<path d="M422.205 339.406H424.716C424.927 339.406 425.098 339.235 425.098 339.025V337.824C425.098 337.613 424.927 337.442 424.716 337.442H422.205C421.995 337.442 421.824 337.613 421.824 337.824V339.025C421.824 339.235 421.995 339.406 422.205 339.406Z" fill="#3F3D56"/>
<path d="M415.658 339.406H418.168C418.379 339.406 418.55 339.235 418.55 339.025V337.824C418.55 337.613 418.379 337.442 418.168 337.442H415.658C415.447 337.442 415.276 337.613 415.276 337.824V339.025C415.276 339.235 415.447 339.406 415.658 339.406Z" fill="#3F3D56"/>
<path d="M409.11 339.406H411.621C411.832 339.406 412.002 339.235 412.002 339.025V337.824C412.002 337.613 411.832 337.442 411.621 337.442H409.11C408.899 337.442 408.729 337.613 408.729 337.824V339.025C408.729 339.235 408.899 339.406 409.11 339.406Z" fill="#3F3D56"/>
<path d="M402.562 339.406H405.073C405.284 339.406 405.455 339.235 405.455 339.025V337.824C405.455 337.613 405.284 337.442 405.073 337.442H402.562C402.352 337.442 402.181 337.613 402.181 337.824V339.025C402.181 339.235 402.352 339.406 402.562 339.406Z" fill="#3F3D56"/>
<path d="M396.015 339.406H398.525C398.736 339.406 398.907 339.235 398.907 339.025V337.824C398.907 337.613 398.736 337.442 398.525 337.442H396.015C395.804 337.442 395.633 337.613 395.633 337.824V339.025C395.633 339.235 395.804 339.406 396.015 339.406Z" fill="#3F3D56"/>
<path d="M389.467 339.406H391.978C392.189 339.406 392.359 339.235 392.359 339.025V337.824C392.359 337.613 392.189 337.442 391.978 337.442H389.467C389.256 337.442 389.086 337.613 389.086 337.824V339.025C389.086 339.235 389.256 339.406 389.467 339.406Z" fill="#3F3D56"/>
<path d="M487.76 342.68H490.27C490.481 342.68 490.652 342.509 490.652 342.299V341.097C490.652 340.887 490.481 340.716 490.27 340.716H487.76C487.549 340.716 487.378 340.887 487.378 341.097V342.299C487.378 342.509 487.549 342.68 487.76 342.68Z" fill="#3F3D56"/>
<path d="M481.212 342.68H483.723C483.933 342.68 484.104 342.509 484.104 342.299V341.097C484.104 340.887 483.933 340.716 483.723 340.716H481.212C481.001 340.716 480.83 340.887 480.83 341.097V342.299C480.83 342.509 481.001 342.68 481.212 342.68Z" fill="#3F3D56"/>
<path d="M474.664 342.68H477.175C477.386 342.68 477.557 342.509 477.557 342.299V341.097C477.557 340.887 477.386 340.716 477.175 340.716H474.664C474.454 340.716 474.283 340.887 474.283 341.097V342.299C474.283 342.509 474.454 342.68 474.664 342.68Z" fill="#3F3D56"/>
<path d="M468.117 342.68H470.627C470.838 342.68 471.009 342.509 471.009 342.299V341.097C471.009 340.887 470.838 340.716 470.627 340.716H468.117C467.906 340.716 467.735 340.887 467.735 341.097V342.299C467.735 342.509 467.906 342.68 468.117 342.68Z" fill="#3F3D56"/>
<path d="M461.569 342.68H464.079C464.29 342.68 464.461 342.509 464.461 342.299V341.097C464.461 340.887 464.29 340.716 464.079 340.716H461.569C461.358 340.716 461.187 340.887 461.187 341.097V342.299C461.187 342.509 461.358 342.68 461.569 342.68Z" fill="#3F3D56"/>
<path d="M455.021 342.68H457.532C457.743 342.68 457.913 342.509 457.913 342.299V341.097C457.913 340.887 457.743 340.716 457.532 340.716H455.021C454.81 340.716 454.64 340.887 454.64 341.097V342.299C454.64 342.509 454.81 342.68 455.021 342.68Z" fill="#3F3D56"/>
<path d="M448.473 342.68H450.984C451.195 342.68 451.366 342.509 451.366 342.299V341.097C451.366 340.887 451.195 340.716 450.984 340.716H448.473C448.263 340.716 448.092 340.887 448.092 341.097V342.299C448.092 342.509 448.263 342.68 448.473 342.68Z" fill="#3F3D56"/>
<path d="M441.926 342.68H444.437C444.647 342.68 444.818 342.509 444.818 342.299V341.097C444.818 340.887 444.647 340.716 444.437 340.716H441.926C441.715 340.716 441.544 340.887 441.544 341.097V342.299C441.544 342.509 441.715 342.68 441.926 342.68Z" fill="#3F3D56"/>
<path d="M435.378 342.68H437.889C438.1 342.68 438.271 342.509 438.271 342.299V341.097C438.271 340.887 438.1 340.716 437.889 340.716H435.378C435.168 340.716 434.997 340.887 434.997 341.097V342.299C434.997 342.509 435.168 342.68 435.378 342.68Z" fill="#3F3D56"/>
<path d="M428.83 342.68H431.341C431.552 342.68 431.723 342.509 431.723 342.299V341.097C431.723 340.887 431.552 340.716 431.341 340.716H428.83C428.62 340.716 428.449 340.887 428.449 341.097V342.299C428.449 342.509 428.62 342.68 428.83 342.68Z" fill="#3F3D56"/>
<path d="M422.283 342.68H424.793C425.004 342.68 425.175 342.509 425.175 342.299V341.097C425.175 340.887 425.004 340.716 424.793 340.716H422.283C422.072 340.716 421.901 340.887 421.901 341.097V342.299C421.901 342.509 422.072 342.68 422.283 342.68Z" fill="#3F3D56"/>
<path d="M415.735 342.68H418.246C418.457 342.68 418.627 342.509 418.627 342.299V341.097C418.627 340.887 418.457 340.716 418.246 340.716H415.735C415.524 340.716 415.354 340.887 415.354 341.097V342.299C415.354 342.509 415.524 342.68 415.735 342.68Z" fill="#3F3D56"/>
<path d="M409.188 342.68H411.698C411.909 342.68 412.08 342.509 412.08 342.299V341.097C412.08 340.887 411.909 340.716 411.698 340.716H409.188C408.977 340.716 408.806 340.887 408.806 341.097V342.299C408.806 342.509 408.977 342.68 409.188 342.68Z" fill="#3F3D56"/>
<path d="M402.64 342.68H405.151C405.361 342.68 405.532 342.509 405.532 342.299V341.097C405.532 340.887 405.361 340.716 405.151 340.716H402.64C402.429 340.716 402.258 340.887 402.258 341.097V342.299C402.258 342.509 402.429 342.68 402.64 342.68Z" fill="#3F3D56"/>
<path d="M396.092 342.68H398.603C398.814 342.68 398.984 342.509 398.984 342.299V341.097C398.984 340.887 398.814 340.716 398.603 340.716H396.092C395.881 340.716 395.711 340.887 395.711 341.097V342.299C395.711 342.509 395.881 342.68 396.092 342.68Z" fill="#3F3D56"/>
<path d="M389.544 342.68H392.055C392.266 342.68 392.437 342.509 392.437 342.299V341.097C392.437 340.887 392.266 340.716 392.055 340.716H389.544C389.334 340.716 389.163 340.887 389.163 341.097V342.299C389.163 342.509 389.334 342.68 389.544 342.68Z" fill="#3F3D56"/>
<path d="M433.414 346.609H458.842C459.052 346.609 459.223 346.438 459.223 346.227V345.026C459.223 344.815 459.052 344.644 458.842 344.644H433.414C433.203 344.644 433.032 344.815 433.032 345.026V346.227C433.032 346.438 433.203 346.609 433.414 346.609Z" fill="#3F3D56"/>
<path d="M406.474 280.399H404.251C403.578 280.399 403.031 280.945 403.031 281.619C403.031 282.293 403.578 282.839 404.251 282.839H406.474C407.148 282.839 407.694 282.293 407.694 281.619C407.694 280.945 407.148 280.399 406.474 280.399Z" fill="white"/>
<path d="M431.895 280.399H429.672C428.998 280.399 428.452 280.945 428.452 281.619C428.452 282.293 428.998 282.839 429.672 282.839H431.895C432.569 282.839 433.115 282.293 433.115 281.619C433.115 280.945 432.569 280.399 431.895 280.399Z" fill="white"/>
<path d="M439.098 280.399H436.875C436.201 280.399 435.655 280.945 435.655 281.619C435.655 282.293 436.201 282.839 436.875 282.839H439.098C439.772 282.839 440.318 282.293 440.318 281.619C440.318 280.945 439.772 280.399 439.098 280.399Z" fill="white"/>
<path d="M424.981 280.195H411.166C410.492 280.195 409.946 280.742 409.946 281.415C409.946 282.089 410.492 282.636 411.166 282.636H424.981C425.655 282.636 426.201 282.089 426.201 281.415C426.201 280.742 425.655 280.195 424.981 280.195Z" fill="white"/>
<path d="M458.875 280.195H445.061C444.387 280.195 443.84 280.742 443.84 281.415C443.84 282.089 444.387 282.636 445.061 282.636H458.875C459.549 282.636 460.095 282.089 460.095 281.415C460.095 280.742 459.549 280.195 458.875 280.195Z" fill="white"/>
<path d="M413.253 285.906H411.03C410.356 285.906 409.81 286.453 409.81 287.127C409.81 287.801 410.356 288.347 411.03 288.347H413.253C413.927 288.347 414.473 287.801 414.473 287.127C414.473 286.453 413.927 285.906 413.253 285.906Z" fill="white"/>
<path d="M438.674 285.906H436.451C435.778 285.906 435.231 286.453 435.231 287.127C435.231 287.801 435.778 288.347 436.451 288.347H438.674C439.348 288.347 439.894 287.801 439.894 287.127C439.894 286.453 439.348 285.906 438.674 285.906Z" fill="white"/>
<path d="M445.876 285.906H443.654C442.98 285.906 442.434 286.453 442.434 287.127C442.434 287.801 442.98 288.347 443.654 288.347H445.876C446.55 288.347 447.097 287.801 447.097 287.127C447.097 286.453 446.55 285.906 445.876 285.906Z" fill="white"/>
<path d="M431.759 285.703H417.945C417.271 285.703 416.725 286.249 416.725 286.923C416.725 287.597 417.271 288.143 417.945 288.143H431.759C432.433 288.143 432.979 287.597 432.979 286.923C432.979 286.249 432.433 285.703 431.759 285.703Z" fill="white"/>
<path d="M465.654 285.703H451.839C451.165 285.703 450.619 286.249 450.619 286.923C450.619 287.597 451.165 288.143 451.839 288.143H465.654C466.328 288.143 466.874 287.597 466.874 286.923C466.874 286.249 466.328 285.703 465.654 285.703Z" fill="white"/>
<path d="M420.032 291.414H417.809C417.135 291.414 416.589 291.961 416.589 292.635C416.589 293.308 417.135 293.855 417.809 293.855H420.032C420.706 293.855 421.252 293.308 421.252 292.635C421.252 291.961 420.706 291.414 420.032 291.414Z" fill="white"/>
<path d="M445.453 291.414H443.23C442.556 291.414 442.01 291.961 442.01 292.635C442.01 293.308 442.556 293.855 443.23 293.855H445.453C446.127 293.855 446.673 293.308 446.673 292.635C446.673 291.961 446.127 291.414 445.453 291.414Z" fill="white"/>
<path d="M452.656 291.414H450.433C449.759 291.414 449.213 291.961 449.213 292.635C449.213 293.308 449.759 293.855 450.433 293.855H452.656C453.329 293.855 453.876 293.308 453.876 292.635C453.876 291.961 453.329 291.414 452.656 291.414Z" fill="white"/>
<path d="M438.538 291.211H424.724C424.05 291.211 423.504 291.757 423.504 292.431C423.504 293.105 424.05 293.651 424.724 293.651H438.538C439.212 293.651 439.758 293.105 439.758 292.431C439.758 291.757 439.212 291.211 438.538 291.211Z" fill="white"/>
<path d="M472.433 291.211H458.618C457.945 291.211 457.398 291.757 457.398 292.431C457.398 293.105 457.945 293.651 458.618 293.651H472.433C473.107 293.651 473.653 293.105 473.653 292.431C473.653 291.757 473.107 291.211 472.433 291.211Z" fill="white"/>
<path d="M426.811 296.922H424.588C423.914 296.922 423.368 297.469 423.368 298.143C423.368 298.816 423.914 299.363 424.588 299.363H426.811C427.485 299.363 428.031 298.816 428.031 298.143C428.031 297.469 427.485 296.922 426.811 296.922Z" fill="white"/>
<path d="M452.232 296.922H450.009C449.335 296.922 448.789 297.469 448.789 298.143C448.789 298.816 449.335 299.363 450.009 299.363H452.232C452.906 299.363 453.452 298.816 453.452 298.143C453.452 297.469 452.906 296.922 452.232 296.922Z" fill="white"/>
<path d="M459.434 296.922H457.212C456.538 296.922 455.991 297.469 455.991 298.143C455.991 298.816 456.538 299.363 457.212 299.363H459.434C460.108 299.363 460.655 298.816 460.655 298.143C460.655 297.469 460.108 296.922 459.434 296.922Z" fill="white"/>
<path d="M445.317 296.719H431.503C430.829 296.719 430.283 297.265 430.283 297.939C430.283 298.613 430.829 299.159 431.503 299.159H445.317C445.991 299.159 446.538 298.613 446.538 297.939C446.538 297.265 445.991 296.719 445.317 296.719Z" fill="white"/>
<path d="M431.895 318.824H429.672C428.998 318.824 428.452 319.37 428.452 320.044C428.452 320.718 428.998 321.264 429.672 321.264H431.895C432.569 321.264 433.115 320.718 433.115 320.044C433.115 319.37 432.569 318.824 431.895 318.824Z" fill="white"/>
<path d="M439.098 318.824H436.875C436.201 318.824 435.655 319.37 435.655 320.044C435.655 320.718 436.201 321.264 436.875 321.264H439.098C439.772 321.264 440.318 320.718 440.318 320.044C440.318 319.37 439.772 318.824 439.098 318.824Z" fill="white"/>
<path d="M458.875 319.027H445.061C444.387 319.027 443.84 319.574 443.84 320.247C443.84 320.921 444.387 321.468 445.061 321.468H458.875C459.549 321.468 460.095 320.921 460.095 320.247C460.095 319.574 459.549 319.027 458.875 319.027Z" fill="white"/>
<path d="M406.474 318.824H404.251C403.578 318.824 403.031 319.37 403.031 320.044C403.031 320.718 403.578 321.264 404.251 321.264H406.474C407.148 321.264 407.694 320.718 407.694 320.044C407.694 319.37 407.148 318.824 406.474 318.824Z" fill="white"/>
<path d="M424.981 319.027H411.166C410.492 319.027 409.946 319.574 409.946 320.247C409.946 320.921 410.492 321.468 411.166 321.468H424.981C425.655 321.468 426.201 320.921 426.201 320.247C426.201 319.574 425.655 319.027 424.981 319.027Z" fill="white"/>
<path d="M413.253 313.316H411.03C410.356 313.316 409.81 313.862 409.81 314.536C409.81 315.21 410.356 315.756 411.03 315.756H413.253C413.927 315.756 414.473 315.21 414.473 314.536C414.473 313.862 413.927 313.316 413.253 313.316Z" fill="white"/>
<path d="M438.674 313.316H436.451C435.778 313.316 435.231 313.862 435.231 314.536C435.231 315.21 435.778 315.756 436.451 315.756H438.674C439.348 315.756 439.894 315.21 439.894 314.536C439.894 313.862 439.348 313.316 438.674 313.316Z" fill="white"/>
<path d="M445.876 313.316H443.654C442.98 313.316 442.434 313.862 442.434 314.536C442.434 315.21 442.98 315.756 443.654 315.756H445.876C446.55 315.756 447.097 315.21 447.097 314.536C447.097 313.862 446.55 313.316 445.876 313.316Z" fill="white"/>
<path d="M431.759 313.519H417.945C417.271 313.519 416.725 314.066 416.725 314.74C416.725 315.413 417.271 315.96 417.945 315.96H431.759C432.433 315.96 432.979 315.413 432.979 314.74C432.979 314.066 432.433 313.519 431.759 313.519Z" fill="white"/>
<path d="M420.032 307.808H417.809C417.135 307.808 416.589 308.354 416.589 309.028C416.589 309.702 417.135 310.248 417.809 310.248H420.032C420.706 310.248 421.252 309.702 421.252 309.028C421.252 308.354 420.706 307.808 420.032 307.808Z" fill="white"/>
<path d="M445.453 307.808H443.23C442.556 307.808 442.01 308.354 442.01 309.028C442.01 309.702 442.556 310.248 443.23 310.248H445.453C446.127 310.248 446.673 309.702 446.673 309.028C446.673 308.354 446.127 307.808 445.453 307.808Z" fill="white"/>
<path d="M452.656 307.808H450.433C449.759 307.808 449.213 308.354 449.213 309.028C449.213 309.702 449.759 310.248 450.433 310.248H452.656C453.329 310.248 453.876 309.702 453.876 309.028C453.876 308.354 453.329 307.808 452.656 307.808Z" fill="white"/>
<path d="M438.538 308.011H424.724C424.05 308.011 423.504 308.558 423.504 309.232C423.504 309.906 424.05 310.452 424.724 310.452H438.538C439.212 310.452 439.758 309.906 439.758 309.232C439.758 308.558 439.212 308.011 438.538 308.011Z" fill="white"/>
<path d="M426.811 302.3H424.588C423.914 302.3 423.368 302.847 423.368 303.52C423.368 304.194 423.914 304.741 424.588 304.741H426.811C427.485 304.741 428.031 304.194 428.031 303.52C428.031 302.847 427.485 302.3 426.811 302.3Z" fill="white"/>
<path d="M452.232 302.3H450.009C449.335 302.3 448.789 302.847 448.789 303.52C448.789 304.194 449.335 304.741 450.009 304.741H452.232C452.906 304.741 453.452 304.194 453.452 303.52C453.452 302.847 452.906 302.3 452.232 302.3Z" fill="white"/>
<path d="M459.434 302.3H457.212C456.538 302.3 455.991 302.847 455.991 303.52C455.991 304.194 456.538 304.741 457.212 304.741H459.434C460.108 304.741 460.655 304.194 460.655 303.52C460.655 302.847 460.108 302.3 459.434 302.3Z" fill="white"/>
<path d="M445.317 302.504H431.503C430.829 302.504 430.283 303.05 430.283 303.724C430.283 304.398 430.829 304.944 431.503 304.944H445.317C445.991 304.944 446.538 304.398 446.538 303.724C446.538 303.05 445.991 302.504 445.317 302.504Z" fill="white"/>
<path d="M394.657 383.374L384.223 366.88L416.974 340.772L430.493 325.795C432.249 323.849 434.485 322.398 436.978 321.588C439.471 320.777 442.133 320.634 444.697 321.175C447.262 321.715 449.641 322.919 451.594 324.666C453.548 326.413 455.009 328.643 455.832 331.132C457.05 334.82 456.788 338.837 455.101 342.336C453.414 345.835 450.433 348.541 446.788 349.884L425.412 357.759L394.657 383.374Z" fill="#FFB6B6"/>
<path d="M149.83 263.784V343.948H205.99V263.784C205.991 263.208 205.807 262.646 205.465 262.182C205.123 261.717 204.642 261.375 204.091 261.205C203.831 261.119 203.559 261.077 203.286 261.08H152.542C152.187 261.079 151.834 261.148 151.505 261.284C151.177 261.42 150.878 261.619 150.626 261.87C150.374 262.121 150.174 262.419 150.037 262.748C149.901 263.076 149.83 263.428 149.83 263.784ZM171.747 291.329C171.762 289.748 172.4 288.238 173.522 287.125C174.645 286.013 176.162 285.389 177.742 285.389C179.322 285.389 180.839 286.013 181.962 287.125C183.084 288.238 183.722 289.748 183.737 291.329V300.63C183.729 302.215 183.094 303.732 181.97 304.85C180.847 305.967 179.327 306.595 177.742 306.595C176.157 306.595 174.637 305.967 173.514 304.85C172.39 303.732 171.755 302.215 171.747 300.63V291.329Z" fill="#624549"/>
<path d="M149.658 341.384V349.115C149.659 349.515 149.819 349.899 150.101 350.183C150.383 350.467 150.766 350.628 151.167 350.631H204.654C205.054 350.629 205.438 350.468 205.721 350.184C206.003 349.9 206.162 349.515 206.162 349.115V341.384H149.658Z" fill="#3F3D56"/>
<path d="M61.4827 143.007V289.375C61.4841 291.24 62.2258 293.028 63.5447 294.347C64.8636 295.666 66.6521 296.408 68.5173 296.409H285.419C287.284 296.408 289.073 295.666 290.392 294.347C291.71 293.028 292.452 291.24 292.454 289.375V143.007C292.449 141.144 291.706 139.358 290.388 138.041C289.069 136.724 287.283 135.983 285.419 135.98H68.5173C66.6537 135.983 64.867 136.724 63.5484 138.041C62.2299 139.358 61.4871 141.144 61.4827 143.007Z" fill="#3F3D56"/>
<path d="M66.571 144.828V287.569C66.5728 288.566 66.9694 289.521 67.6741 290.226C68.3788 290.93 69.3341 291.327 70.3307 291.329H283.613C284.61 291.327 285.565 290.93 286.27 290.226C286.975 289.521 287.371 288.566 287.373 287.569V144.828C287.373 143.831 286.977 142.874 286.272 142.167C285.567 141.461 284.611 141.063 283.613 141.061H70.3307C69.3329 141.063 68.3767 141.461 67.6719 142.167C66.967 142.874 66.5711 143.831 66.571 144.828Z" fill="white"/>
<path d="M106.153 350.107C106.37 350.379 106.646 350.599 106.96 350.749C107.274 350.899 107.618 350.977 107.966 350.975H234.856C235.203 350.974 235.545 350.897 235.858 350.747C236.172 350.598 236.448 350.38 236.666 350.111C236.885 349.841 237.041 349.526 237.122 349.189C237.204 348.852 237.209 348.501 237.138 348.161L235.168 338.805C235.087 338.423 234.911 338.068 234.657 337.772C234.403 337.476 234.079 337.248 233.715 337.109C233.451 337.005 233.17 336.952 232.886 336.952H109.928C109.645 336.952 109.364 337.005 109.1 337.109C108.735 337.248 108.411 337.476 108.157 337.772C107.903 338.068 107.727 338.423 107.646 338.805L105.676 348.161C105.606 348.5 105.612 348.851 105.695 349.188C105.777 349.524 105.934 349.839 106.153 350.107Z" fill="#624549"/>
<path d="M276.692 160.724H77.1238C76.9164 160.719 76.719 160.634 76.574 160.486C76.4289 160.337 76.3477 160.138 76.3477 159.93C76.3477 159.723 76.4289 159.524 76.574 159.375C76.719 159.227 76.9164 159.141 77.1238 159.137H276.692C276.899 159.141 277.096 159.227 277.241 159.375C277.387 159.524 277.468 159.723 277.468 159.93C277.468 160.138 277.387 160.337 277.241 160.486C277.096 160.634 276.899 160.719 276.692 160.724Z" fill="#3F3D56"/>
<path d="M90.7089 155.085C93.2776 155.085 95.3599 152.956 95.3599 150.33C95.3599 147.704 93.2776 145.575 90.7089 145.575C88.1402 145.575 86.0579 147.704 86.0579 150.33C86.0579 152.956 88.1402 155.085 90.7089 155.085Z" fill="#3F3D56"/>
<path d="M106.776 155.085C109.345 155.085 111.427 152.956 111.427 150.33C111.427 147.704 109.345 145.575 106.776 145.575C104.207 145.575 102.125 147.704 102.125 150.33C102.125 152.956 104.207 155.085 106.776 155.085Z" fill="#3F3D56"/>
<path d="M122.843 155.085C125.412 155.085 127.494 152.956 127.494 150.33C127.494 147.704 125.412 145.575 122.843 145.575C120.274 145.575 118.192 147.704 118.192 150.33C118.192 152.956 120.274 155.085 122.843 155.085Z" fill="#3F3D56"/>
<path d="M267.017 146.751H255.605C255.379 146.756 255.165 146.85 255.007 147.011C254.849 147.173 254.761 147.389 254.761 147.615C254.761 147.841 254.849 148.057 255.007 148.219C255.165 148.38 255.379 148.473 255.605 148.479H267.017C267.244 148.475 267.46 148.383 267.619 148.221C267.779 148.06 267.868 147.842 267.868 147.615C267.868 147.388 267.779 147.17 267.619 147.008C267.46 146.847 267.244 146.754 267.017 146.751Z" fill="#3F3D56"/>
<path d="M267.017 149.995H255.605C255.379 150 255.164 150.093 255.007 150.255C254.849 150.416 254.76 150.633 254.76 150.859C254.76 151.085 254.849 151.301 255.007 151.463C255.164 151.624 255.379 151.717 255.605 151.722H267.017C267.244 151.72 267.461 151.627 267.621 151.466C267.781 151.304 267.87 151.086 267.87 150.859C267.87 150.631 267.781 150.413 267.621 150.252C267.461 150.09 267.244 149.998 267.017 149.995Z" fill="#3F3D56"/>
<path d="M267.017 153.239H255.605C255.379 153.244 255.165 153.337 255.007 153.499C254.849 153.66 254.761 153.877 254.761 154.102C254.761 154.328 254.849 154.545 255.007 154.706C255.165 154.867 255.379 154.961 255.605 154.966H267.017C267.244 154.963 267.46 154.87 267.619 154.709C267.779 154.547 267.868 154.329 267.868 154.102C267.868 153.875 267.779 153.658 267.619 153.496C267.46 153.334 267.244 153.242 267.017 153.239Z" fill="#3F3D56"/>
<path d="M542.133 344.777C542.478 345.779 543.131 346.647 543.999 347.255C544.868 347.864 545.906 348.181 546.966 348.162L567.673 347.629C568.741 347.608 569.773 347.243 570.616 346.586C571.458 345.93 572.066 345.019 572.348 343.989L575.278 312.656C576.318 313.127 577.449 313.359 578.59 313.336C579.582 313.312 580.559 313.092 581.465 312.689C582.371 312.287 583.19 311.71 583.873 310.991C584.556 310.273 585.092 309.427 585.448 308.501C585.804 307.576 585.975 306.589 585.95 305.598C585.925 304.606 585.705 303.63 585.303 302.723C584.901 301.817 584.324 300.999 583.605 300.315C582.886 299.632 582.04 299.097 581.115 298.74C580.189 298.384 579.203 298.213 578.211 298.238C577.755 298.237 577.3 298.284 576.854 298.379C576.369 297.854 575.78 297.437 575.124 297.154C574.467 296.871 573.759 296.728 573.045 296.735L541.193 297.558C540.929 297.568 540.666 297.6 540.407 297.656C539.709 297.786 539.046 298.064 538.464 298.472C537.882 298.88 537.395 299.407 537.034 300.019C536.673 300.631 536.447 301.314 536.372 302.02C536.297 302.727 536.374 303.441 536.598 304.115L542.133 344.777ZM575.879 310.528L577.964 303.062C578.201 302.199 578.207 301.289 577.98 300.424C578.081 300.424 578.17 300.376 578.272 300.376C579.701 300.346 581.084 300.885 582.117 301.873C583.151 302.862 583.75 304.22 583.783 305.649C583.817 307.079 583.282 308.464 582.296 309.499C581.31 310.535 579.954 311.138 578.524 311.175C577.6 311.204 576.685 310.981 575.879 310.528Z" fill="#624549"/>
<path d="M540.407 297.655C541.086 301.536 548.715 304.263 557.889 303.789C566.325 303.4 573.223 300.438 574.486 296.928C574.019 296.789 573.532 296.724 573.045 296.735L541.193 297.558C540.929 297.568 540.666 297.6 540.407 297.655Z" fill="#3F3D56"/>
<path d="M559.57 327.559C559.612 327.548 559.652 327.531 559.688 327.507L564.185 324.564C564.239 324.528 564.284 324.48 564.315 324.423C564.346 324.366 564.362 324.302 564.362 324.237C564.362 324.172 564.346 324.108 564.315 324.051C564.284 323.994 564.24 323.946 564.185 323.91L559.511 320.849C559.469 320.82 559.42 320.801 559.37 320.791C559.319 320.781 559.268 320.781 559.217 320.792C559.167 320.802 559.119 320.822 559.076 320.851C559.034 320.88 558.997 320.917 558.969 320.96C558.941 321.003 558.922 321.051 558.912 321.102C558.903 321.153 558.903 321.204 558.914 321.255C558.924 321.305 558.945 321.353 558.974 321.395C559.003 321.438 559.04 321.474 559.083 321.502L563.258 324.236L559.261 326.853C559.183 326.904 559.126 326.98 559.1 327.069C559.073 327.157 559.079 327.253 559.117 327.337C559.154 327.422 559.22 327.491 559.303 327.531C559.386 327.572 559.481 327.582 559.57 327.559Z" fill="#565A58"/>
<path d="M552.468 327.887C552.543 327.867 552.611 327.826 552.663 327.768C552.715 327.71 552.748 327.638 552.759 327.561C552.77 327.484 552.757 327.405 552.723 327.335C552.688 327.265 552.634 327.207 552.566 327.169L548.421 324.792L552.428 321.816C552.469 321.786 552.504 321.747 552.53 321.703C552.556 321.659 552.574 321.611 552.581 321.56C552.589 321.509 552.586 321.457 552.573 321.408C552.561 321.358 552.539 321.311 552.508 321.27C552.478 321.229 552.439 321.194 552.395 321.168C552.351 321.142 552.302 321.124 552.252 321.117C552.201 321.109 552.149 321.112 552.099 321.124C552.05 321.137 552.003 321.159 551.962 321.189L547.476 324.521C547.424 324.56 547.383 324.611 547.355 324.67C547.328 324.728 547.315 324.793 547.319 324.858C547.323 324.923 547.343 324.985 547.377 325.041C547.411 325.096 547.458 325.142 547.515 325.174L552.177 327.847C552.265 327.897 552.369 327.911 552.468 327.887Z" fill="#565A58"/>
<path d="M559.123 330.138C559.161 330.129 559.197 330.114 559.23 330.093C559.274 330.066 559.313 330.031 559.343 329.99C559.373 329.949 559.395 329.902 559.407 329.852C559.419 329.802 559.422 329.75 559.414 329.699C559.406 329.649 559.388 329.6 559.361 329.556L552.987 319.076C552.933 318.987 552.846 318.924 552.745 318.9C552.644 318.875 552.538 318.892 552.45 318.946C552.361 319 552.298 319.086 552.273 319.187C552.249 319.288 552.265 319.394 552.319 319.483L558.694 329.963C558.737 330.034 558.802 330.09 558.88 330.121C558.957 330.153 559.042 330.159 559.123 330.138Z" fill="#565A58"/>
<path d="M200.753 203.87H166.212C164.803 203.87 163.661 205.012 163.661 206.421V209.796C163.661 211.205 164.803 212.347 166.212 212.347H200.753C202.162 212.347 203.304 211.205 203.304 209.796V206.421C203.304 205.012 202.162 203.87 200.753 203.87Z" fill="#565A58"/>
<path d="M220.886 220.824H146.078C144.669 220.824 143.527 221.966 143.527 223.376V226.75C143.527 228.159 144.669 229.302 146.078 229.302H220.886C222.295 229.302 223.438 228.159 223.438 226.75V223.376C223.438 221.966 222.295 220.824 220.886 220.824Z" fill="#E6E6E6"/>
<path d="M220.886 237.779H146.078C144.669 237.779 143.527 238.921 143.527 240.33V243.705C143.527 245.114 144.669 246.256 146.078 246.256H220.886C222.295 246.256 223.438 245.114 223.438 243.705V240.33C223.438 238.921 222.295 237.779 220.886 237.779Z" fill="#E6E6E6"/>
<path d="M227.228 294.553L227.397 295.088L227.406 295.106L232.506 310.612L238.373 328.481L249.412 362.06L249.519 367.276V367.294L250.339 409.256L248.066 414.944L250.625 424.271C250.625 424.271 249.448 410.173 243.135 418.269C239.559 422.87 235.378 427.578 231.945 431.992C236.947 434.016 242.029 435.847 247.192 437.484C248.307 437.841 249.43 438.18 250.553 438.518C250.794 438.59 251.035 438.661 251.276 438.732C268.389 443.793 286.081 446.637 303.919 447.194C304.846 447.221 305.756 447.239 306.639 447.257C306.951 447.266 307.254 447.275 307.557 447.275C308.556 447.283 309.545 447.292 310.544 447.292C312.559 447.292 314.565 447.263 316.563 447.203C331.346 446.787 346.043 444.799 360.405 441.274C360.307 435.344 360.04 428.416 359.656 421.015C359.478 417.386 355.474 413.454 355.234 409.656C355.064 406.802 358.658 404.118 358.47 401.221C357.258 383.379 355.742 390.228 354.618 377.593C354.503 376.353 354.396 375.168 354.297 374.035C353.575 365.921 353.076 360.848 353.076 360.848L357.873 330.612L365.407 283.14L364.828 282.186L364.177 281.865L324.436 262.195L322.278 256.667C321.649 255.074 320.559 253.706 319.146 252.738C317.733 251.77 316.064 251.247 314.351 251.236L288.172 251.129C286.814 251.123 285.473 251.441 284.262 252.057C283.051 252.673 282.004 253.568 281.209 254.669L274.12 264.486L227.228 294.553Z" fill="#3F3D56"/>
<path d="M255.449 354.588L249.519 367.276L245.471 375.943L238.507 412.403L235.021 416.103L232.034 403.004L200.771 409.945C199.745 404.248 200.496 410.138 199.863 403.888C200.041 403.709 200.229 403.531 200.416 403.353C200.915 402.889 201.334 402.452 201.325 402.033C200.969 380.473 202.039 343.781 210.973 321.552C212.372 317.923 214.217 314.482 216.466 311.307C216.644 311.067 216.813 310.826 216.983 310.585C221.102 304.816 223.706 299.136 227.397 295.097V295.088C227.42 295.07 227.441 295.049 227.46 295.026C227.473 295.019 227.485 295.01 227.495 294.999L252.854 281.553L253.942 312.119L254.718 334.089L255.449 354.588Z" fill="#3F3D56"/>
<path d="M346.887 358.192L354.294 374.039L356.879 379.558L363.841 416.015L367.316 419.706L370.31 406.61L371.717 406.321L397.087 401.067L404.482 424.552C406.148 421.775 406.805 418.508 406.34 415.302C405.876 412.097 404.319 409.15 401.933 406.961C401.428 406.504 401.007 406.059 401.019 405.638C401.44 380.28 399.889 333.976 385.881 314.918C381.432 308.87 378.763 302.846 374.879 298.638C374.867 298.626 374.867 298.614 374.855 298.614L365.404 283.139L364.827 282.189L364.178 281.864L346.887 358.192Z" fill="#3F3D56"/>
<path d="M302.018 243.679C321.253 243.679 336.846 228.086 336.846 208.851C336.846 189.616 321.253 174.023 302.018 174.023C282.783 174.023 267.19 189.616 267.19 208.851C267.19 228.086 282.783 243.679 302.018 243.679Z" fill="#FFB6B6"/>
<path d="M349.092 184.524C348.822 184.236 348.497 184.005 348.136 183.845C347.774 183.685 347.385 183.6 346.99 183.594L347.513 182.14C347.684 181.682 347.73 181.187 347.647 180.705C347.563 180.224 347.354 179.773 347.039 179.399C346.724 179.025 346.315 178.742 345.855 178.578C345.394 178.414 344.898 178.376 344.418 178.466L342.511 178.834L342.691 177.56C342.76 177.085 342.704 176.601 342.529 176.155C342.354 175.708 342.066 175.315 341.693 175.014C341.32 174.712 340.875 174.513 340.401 174.436C339.928 174.359 339.443 174.407 338.993 174.574C338.585 174.735 338.145 174.802 337.707 174.771C337.269 174.74 336.843 174.611 336.461 174.394C336.077 174.184 335.745 173.892 335.485 173.54C335.226 173.188 335.047 172.783 334.96 172.354L334.296 169.149L334.226 168.977C330.99 163.584 324.768 159.66 317.155 158.222C310.378 156.933 303.429 157.589 296.731 158.207C294.073 158.457 291.072 158.738 288.571 160.27C286.445 161.583 284.647 164.21 285.014 166.859C278.41 164.835 271.328 168.876 267.819 173.972C263.66 180.037 262.98 187.635 262.871 193.575C262.574 207.629 265.474 219.127 271.469 227.756C271.906 228.381 272.016 229.686 272.883 230.124L272.704 229.835C273.673 230.32 274.658 231.101 274.29 231.938C273.235 234.345 280.246 239.668 285.186 241.426C294.198 244.639 306.181 244.365 314.607 243.209L314.904 241.215C317.944 240.801 320.086 240.012 320.688 238.777C321.751 237.87 322.657 237.057 323.447 236.307L323.455 236.299C323.47 236.283 323.502 236.26 323.517 236.244C327.324 232.594 328.207 230.515 328.606 227.349C328.989 224.246 328.309 221.096 327.613 218.259C342.261 220.526 321.845 202.658 335.492 199.203C335.648 199.155 335.808 199.116 335.969 199.086C336.367 198.992 336.766 198.898 337.149 198.789C338.995 198.288 340.763 197.533 342.401 196.545C346.216 194.224 347.474 191.144 349.444 187.674C349.728 187.18 349.847 186.608 349.784 186.041C349.721 185.475 349.478 184.943 349.092 184.524Z" fill="#624549"/>
<path d="M425.199 360.672C425.191 362.039 425.176 363.954 425.113 366.323C425.106 366.651 425.098 366.987 425.09 367.331C424.988 371.685 424.887 375.335 424.723 379.392C424.715 379.673 424.707 379.947 424.691 380.228C424.472 385.887 424.128 392.476 423.534 402.911C422.432 422.186 420.51 405.56 418.579 412.322C418.485 412.658 418.383 413.056 418.29 413.525C417.997 415.227 417.504 416.888 416.82 418.473C415.796 419.083 414.741 419.669 413.702 420.255C410.739 421.904 407.73 423.491 404.697 425C402.993 425.844 401.282 426.672 399.562 427.469C399.288 427.595 399.023 427.72 398.757 427.837C389.951 431.91 380.876 435.373 371.595 438.201C369.782 438.748 367.976 439.28 366.147 439.772C364.24 440.304 362.333 440.804 360.402 441.273C346.04 444.799 331.344 446.788 316.561 447.206C314.568 447.268 312.559 447.292 310.542 447.292C309.542 447.292 308.557 447.284 307.557 447.276C307.252 447.276 306.947 447.268 306.642 447.26C305.759 447.237 304.844 447.221 303.922 447.198C286.084 446.641 268.392 443.796 251.279 438.733L250.553 438.522C249.427 438.178 248.309 437.842 247.192 437.482C242.033 435.849 236.95 434.02 231.942 431.995C228.12 430.455 224.342 428.803 220.608 427.04C220.574 427.03 220.542 427.014 220.515 426.993C219.733 426.633 218.944 426.258 218.162 425.875C218.06 425.82 217.951 425.766 217.841 425.711C214.926 424.288 212.042 422.798 209.189 421.24C206.789 415.729 203.413 414.674 201.318 409.828C200.708 408.388 200.267 406.883 200.005 405.342C200.005 405.326 199.997 405.31 199.997 405.287C200.216 408.195 199.067 400.128 199.989 405.256C199.981 405.162 199.973 405.06 199.966 404.943C199.942 404.662 199.911 404.318 199.864 403.888C197.183 377.711 197.355 347.775 196.19 323.107C196.112 321.512 196.031 319.985 195.948 318.526C195.925 318.042 195.893 317.565 195.862 317.096C195.917 316.955 195.979 316.807 196.05 316.666C196.065 316.625 196.083 316.586 196.104 316.549C196.127 316.5 196.154 316.453 196.183 316.408C196.198 316.385 196.222 316.353 196.237 316.33C196.249 316.303 196.262 316.277 196.276 316.252C196.347 316.142 196.425 316.025 196.511 315.916C196.55 315.869 196.581 315.83 196.62 315.791C196.647 315.751 196.679 315.714 196.714 315.681C196.738 315.644 196.767 315.609 196.8 315.58C196.831 315.548 196.863 315.509 196.902 315.47C196.918 315.446 196.94 315.424 196.964 315.408C197.026 315.337 197.094 315.271 197.167 315.212C197.446 314.956 197.744 314.72 198.058 314.509C198.168 314.438 198.285 314.368 198.395 314.29C199.182 313.819 200.012 313.421 200.872 313.102C201.169 312.992 201.466 312.891 201.787 312.781C201.904 312.75 202.013 312.711 202.131 312.672C202.303 312.617 202.475 312.562 202.654 312.523C203.545 312.258 204.507 312.031 205.546 311.82C205.671 311.796 205.804 311.773 205.937 311.742C206.125 311.703 206.32 311.671 206.516 311.64C206.781 311.593 207.055 311.546 207.329 311.499C209.65 311.132 212.284 310.859 215.192 310.679C215.465 310.663 215.739 310.648 216.012 310.632C216.333 310.616 216.653 310.601 216.982 310.585C217.255 310.569 217.537 310.561 217.818 310.554C218.092 310.538 218.373 310.53 218.662 310.522C219.452 310.499 220.264 310.476 221.093 310.46C223.454 310.413 225.939 310.429 228.55 310.483C229.761 310.515 230.996 310.546 232.262 310.601C232.348 310.601 232.427 310.608 232.505 310.608C233.607 310.647 234.717 310.694 235.858 310.757C236.655 310.796 237.46 310.835 238.265 310.882C239.023 310.929 239.789 310.976 240.563 311.031C241.165 311.062 241.767 311.109 242.377 311.148C242.893 311.187 243.408 311.226 243.924 311.257L244.628 311.304C245.011 311.335 245.394 311.359 245.785 311.398C246.644 311.468 247.504 311.539 248.38 311.609C249.247 311.687 250.13 311.765 251.014 311.843C251.897 311.922 252.788 312.008 253.679 312.094C253.773 312.101 253.859 312.109 253.945 312.117C254.758 312.203 255.571 312.281 256.391 312.367C256.579 312.383 256.774 312.398 256.962 312.422C257.744 312.5 258.542 312.592 259.332 312.676C259.574 312.702 259.815 312.728 260.058 312.754C260.677 312.822 261.287 312.88 261.909 312.953C262.73 313.047 263.567 313.133 264.379 313.242C265.013 313.313 265.646 313.383 266.279 313.461C267.271 313.579 268.28 313.704 269.288 313.837C269.671 313.883 270.054 313.93 270.437 313.985C273.313 314.345 276.221 314.743 279.176 315.157C283.654 315.791 288.203 316.478 292.784 317.221C297.372 317.964 301.986 318.748 306.626 319.574C307.799 319.785 308.971 319.996 310.152 320.215C310.683 320.316 311.215 320.418 311.746 320.519C312.653 320.684 313.559 320.856 314.466 321.027C315.373 321.199 316.279 321.371 317.186 321.551C318.265 321.762 319.351 321.973 320.43 322.184C327.535 323.591 334.601 325.092 341.495 326.663C342.628 326.921 343.761 327.187 344.887 327.445C347.138 327.968 349.368 328.5 351.578 329.039C352.187 329.18 352.789 329.328 353.391 329.477C354.892 329.852 356.393 330.227 357.87 330.61L358.128 330.681C359.214 330.946 360.277 331.22 361.34 331.501C363.849 332.158 366.317 332.822 368.742 333.494C370.352 333.94 371.944 334.391 373.518 334.847C375.871 335.527 378.177 336.214 380.42 336.91C380.975 337.082 381.53 337.254 382.077 337.418C383.718 337.926 385.336 338.442 386.907 338.958C388.158 339.364 389.377 339.779 390.581 340.193C391.785 340.607 392.965 341.021 394.122 341.436C394.864 341.701 395.599 341.983 396.334 342.249C397.389 342.639 398.428 343.03 399.445 343.421C399.757 343.538 400.062 343.663 400.367 343.781C400.562 343.867 400.75 343.937 400.938 344.015C401.305 344.164 401.68 344.304 402.04 344.453C402.407 344.593 402.767 344.742 403.126 344.898C403.478 345.039 403.837 345.188 404.181 345.336C404.533 345.477 404.877 345.625 405.221 345.782C405.51 345.899 405.791 346.024 406.065 346.149C406.62 346.391 407.175 346.634 407.714 346.884C407.98 347.009 408.246 347.126 408.511 347.251L409.121 347.532C409.207 347.579 409.293 347.618 409.379 347.658C409.574 347.751 409.778 347.853 409.973 347.947C410.426 348.158 410.872 348.384 411.31 348.595C411.896 348.892 412.467 349.19 413.014 349.479C413.569 349.776 414.108 350.073 414.624 350.362C414.71 350.409 414.788 350.456 414.874 350.503C414.991 350.565 415.108 350.636 415.226 350.698C415.624 350.925 416.007 351.159 416.39 351.386C417.141 351.847 417.852 352.3 418.516 352.754C418.665 352.855 418.805 352.957 418.954 353.051C419.446 353.402 419.915 353.746 420.353 354.098C420.353 354.106 420.353 354.106 420.361 354.106C420.509 354.215 420.65 354.333 420.791 354.442C420.908 354.551 421.033 354.645 421.15 354.755C421.557 355.106 421.932 355.442 422.276 355.786C422.391 355.893 422.501 356.005 422.604 356.122C422.65 356.16 422.692 356.202 422.729 356.248C422.886 356.404 423.026 356.56 423.159 356.716C423.18 356.738 423.198 356.762 423.214 356.787C423.401 357.006 423.573 357.225 423.738 357.443C423.816 357.553 423.902 357.662 423.972 357.772C424.066 357.905 424.16 358.045 424.238 358.178C424.308 358.288 424.371 358.405 424.433 358.514C424.599 358.796 424.74 359.092 424.855 359.398C424.943 359.605 425.014 359.819 425.066 360.038C425.126 360.246 425.17 360.458 425.199 360.672Z" fill="#624549"/>
<path opacity="0.2" d="M425.199 360.672C425.192 362.039 425.176 363.954 425.113 366.323C425.106 366.651 425.09 366.987 425.082 367.331C425.004 370.653 424.887 374.756 424.723 379.392C424.715 379.673 424.707 379.947 424.691 380.228C424.472 385.887 424.129 392.476 423.534 402.911C422.432 422.186 420.51 405.56 418.579 412.322C413.217 409.023 407.339 405.568 401.055 402.02C399.922 401.379 398.778 400.735 397.624 400.089C385.055 393.078 371.017 385.731 356.361 378.454C355.783 378.164 355.197 377.875 354.618 377.594C321.048 361 284.405 344.859 254.719 334.088C248.989 332.009 243.518 330.133 238.375 328.484C227.541 325.022 218.178 322.599 210.971 321.551C203.467 320.457 198.285 320.848 196.19 323.107C196.112 321.512 196.031 319.985 195.948 318.526C195.917 318.042 195.885 317.565 195.854 317.096C195.902 316.967 195.965 316.844 196.026 316.721C196.035 316.702 196.041 316.684 196.05 316.666C196.065 316.625 196.083 316.586 196.104 316.549C196.127 316.5 196.154 316.453 196.183 316.408C196.208 316.353 196.239 316.3 196.276 316.252C196.347 316.142 196.425 316.025 196.511 315.916C196.574 315.834 196.642 315.755 196.714 315.681C196.738 315.643 196.767 315.609 196.8 315.579C196.831 315.548 196.863 315.509 196.902 315.47C196.918 315.445 196.94 315.424 196.964 315.408C197.026 315.337 197.094 315.271 197.167 315.212C197.446 314.956 197.744 314.72 198.058 314.509C198.168 314.438 198.285 314.368 198.395 314.29C199.182 313.819 200.012 313.421 200.872 313.102C201.169 312.992 201.466 312.891 201.787 312.781C201.904 312.75 202.013 312.711 202.131 312.672C202.303 312.617 202.475 312.562 202.654 312.523C203.545 312.258 204.507 312.031 205.546 311.82C205.859 311.757 206.187 311.695 206.516 311.64C206.781 311.593 207.055 311.546 207.329 311.499C209.65 311.132 212.284 310.858 215.192 310.679C215.465 310.663 215.739 310.647 216.012 310.632C216.333 310.616 216.653 310.6 216.982 310.585C217.255 310.569 217.537 310.561 217.818 310.554C218.092 310.538 218.373 310.53 218.662 310.522C219.452 310.499 220.264 310.475 221.093 310.46C223.454 310.421 225.939 310.436 228.55 310.491C229.761 310.515 230.996 310.554 232.262 310.608C232.341 310.608 232.427 310.616 232.505 310.616C233.607 310.647 234.725 310.702 235.858 310.757C236.655 310.796 237.46 310.835 238.265 310.882C239.023 310.929 239.79 310.976 240.563 311.03C241.165 311.062 241.767 311.109 242.377 311.148C242.893 311.187 243.408 311.226 243.924 311.257C244.542 311.304 245.159 311.351 245.785 311.398C246.644 311.468 247.504 311.538 248.38 311.609C249.247 311.687 250.13 311.765 251.014 311.843C251.897 311.921 252.788 312.007 253.679 312.093C253.773 312.101 253.859 312.109 253.945 312.117C254.758 312.203 255.571 312.281 256.391 312.367C260.94 312.828 265.622 313.367 270.437 313.985C273.313 314.352 276.226 314.746 279.176 315.165C283.654 315.798 288.204 316.486 292.784 317.221C297.372 317.963 301.986 318.748 306.626 319.574C307.799 319.785 308.971 319.996 310.152 320.215C311.59 320.48 313.028 320.751 314.466 321.027C315.373 321.199 316.28 321.371 317.186 321.551C318.265 321.762 319.351 321.973 320.43 322.184C327.535 323.591 334.601 325.092 341.495 326.663C342.628 326.921 343.762 327.187 344.887 327.445C347.138 327.968 349.368 328.5 351.578 329.039C352.188 329.188 352.789 329.336 353.391 329.485C354.9 329.86 356.393 330.235 357.87 330.61V330.618C357.956 330.634 358.042 330.657 358.128 330.681C359.207 330.954 360.277 331.228 361.34 331.509C363.849 332.166 366.317 332.827 368.742 333.494C370.353 333.948 371.947 334.393 373.518 334.847C375.871 335.534 378.177 336.222 380.42 336.91C380.975 337.082 381.53 337.254 382.077 337.418C383.718 337.934 385.329 338.447 386.907 338.958C388.158 339.364 389.377 339.779 390.581 340.193C391.785 340.607 392.965 341.021 394.122 341.436C394.872 341.701 395.607 341.975 396.334 342.241C397.397 342.632 398.429 343.022 399.445 343.421C399.757 343.538 400.062 343.663 400.367 343.781C400.938 343.999 401.493 344.226 402.04 344.453C402.407 344.593 402.767 344.742 403.126 344.898C403.478 345.039 403.837 345.188 404.181 345.336C404.533 345.477 404.877 345.625 405.221 345.782C405.51 345.899 405.792 346.024 406.065 346.149C406.62 346.391 407.175 346.634 407.714 346.884C407.98 347.009 408.246 347.126 408.512 347.251L409.121 347.532C409.207 347.579 409.293 347.618 409.379 347.657C410.044 347.97 410.684 348.283 411.31 348.595C411.896 348.892 412.467 349.189 413.014 349.479C413.663 349.823 414.28 350.159 414.874 350.503C414.991 350.565 415.108 350.635 415.226 350.698C415.624 350.925 416.007 351.159 416.39 351.386C417.141 351.847 417.852 352.3 418.516 352.754C419.173 353.207 419.783 353.653 420.353 354.098C420.353 354.106 420.353 354.106 420.361 354.106C420.635 354.325 420.9 354.544 421.15 354.755C421.557 355.106 421.932 355.442 422.276 355.786C422.391 355.892 422.501 356.005 422.604 356.122C422.65 356.16 422.692 356.202 422.729 356.248C422.894 356.427 423.058 356.607 423.214 356.787C423.402 357.006 423.574 357.225 423.738 357.443C423.816 357.553 423.902 357.662 423.972 357.772C424.066 357.905 424.16 358.045 424.238 358.178C424.308 358.288 424.371 358.405 424.433 358.514C424.599 358.796 424.74 359.091 424.855 359.397C424.941 359.606 425.011 359.82 425.066 360.038C425.126 360.246 425.17 360.458 425.199 360.672Z" fill="#3F3437"/>
</g>
<defs>
<clipPath id="clip0_552_8030">
<rect width="615" height="447.292" fill="white"/>
</clipPath>
</defs>
</svg>
