<svg width="287" height="219" viewBox="0 0 287 219" fill="none" xmlns="http://www.w3.org/2000/svg">
<g clip-path="url(#clip0_15_95)">
<path d="M265.542 198.216C256.139 205.377 244.682 212.631 233.419 216.051C230.172 217.066 226.821 217.715 223.43 217.983C220.259 218.238 217.068 217.991 213.975 217.25C205.846 215.228 198.306 211.687 191.011 207.55C188.627 206.197 186.271 204.781 183.929 203.334C180.106 200.971 176.32 198.526 172.524 196.139C171.956 195.777 171.391 195.422 170.823 195.071H170.819C169.903 194.496 168.984 193.929 168.064 193.369C167.902 193.269 167.74 193.173 167.575 193.073C165.835 192.019 164.066 190.989 162.267 189.983C162.046 189.863 161.826 189.739 161.605 189.618C158.124 187.688 154.547 185.937 150.886 184.372C148.482 183.36 146.047 182.447 143.587 181.669H143.584C142.644 181.372 141.7 181.093 140.753 180.838C137.912 180.059 135.018 179.493 132.093 179.144C128.063 178.656 123.987 178.688 119.965 179.24C119.693 179.278 119.424 179.316 119.152 179.361C108.268 181.104 98.3341 186.98 87.4013 188.365C87.0466 188.409 86.6952 188.451 86.3404 188.482C86.1889 188.495 86.0373 188.513 85.8858 188.523C82.7087 188.795 79.5114 188.716 76.3515 188.289C67.5234 187.125 58.926 183.511 51.1863 178.958C33.0925 168.311 18.4191 151.946 9.498 132.995C7.96605 129.747 6.60591 126.421 5.42322 123.03C2.11651 113.628 0.295493 103.767 0.0257346 93.8038C-0.811269 59.2352 18.8325 24.5529 49.6742 8.91853C80.5193 -6.71588 121.095 -1.54574 145.971 22.4725C161.061 37.0425 169.793 56.7862 181.149 74.4253C192.506 92.0609 208.646 108.908 229.465 111.477C240.07 112.786 251.168 110.255 261.333 113.547C266.961 115.373 271.763 118.866 275.631 123.316C278.231 126.336 280.408 129.696 282.099 133.305C283.339 135.913 284.346 138.627 285.106 141.413C285.248 141.926 285.379 142.44 285.506 142.953C290.569 163.633 282.478 185.313 265.542 198.216Z" fill="#F2F2F2"/>
<path d="M96.1575 160.778H63.7796C58.9287 160.778 54.9962 164.71 54.9962 169.561V169.561C54.9962 174.412 58.9287 178.345 63.7796 178.345H96.1575C101.008 178.345 104.941 174.412 104.941 169.561C104.941 164.71 101.008 160.778 96.1575 160.778Z" fill="#3F3D56"/>
<path d="M86.3396 173.867V188.482C83.0137 188.804 79.6617 188.739 76.3506 188.289V173.867H86.3396Z" fill="#3F3D56"/>
<path d="M119.965 179.24C119.693 179.278 119.424 179.316 119.152 179.361C108.268 181.104 98.3337 186.98 87.401 188.365C87.0462 188.41 86.6949 188.451 86.3401 188.482C86.1886 188.496 86.037 188.513 85.8855 188.523C83.216 185.909 80.5466 183.126 78.039 180.243C76.6784 178.682 75.3626 177.091 74.1261 175.479C70.9158 171.318 68.1947 167.04 66.3967 162.838C66.5793 160.823 65.3255 156.163 64.7261 152.594L64.7227 152.591C64.4678 151.092 64.33 149.79 64.4575 148.953C65.1877 144.124 69.1316 144.679 70.344 139.946C71.4378 139.038 72.6023 138.219 73.8264 137.497C74.0296 137.376 74.2363 137.256 74.4498 137.135L87.6077 128.042L92.6366 132.974L100.29 140.483L108.584 148.616L101.544 155.729C101.544 155.729 107.427 162.511 114.306 171.552C116.152 173.981 118.071 176.574 119.965 179.24Z" fill="#2F2E41"/>
<path d="M233.419 173.867V216.051C230.172 217.067 226.822 217.715 223.43 217.984V173.867H233.419Z" fill="#3F3D56"/>
<path d="M246.335 170.422H213.957C209.106 170.422 205.174 174.355 205.174 179.206V179.206C205.174 184.057 209.106 187.989 213.957 187.989H246.335C251.186 187.989 255.118 184.057 255.118 179.206C255.118 174.355 251.186 170.422 246.335 170.422Z" fill="#3F3D56"/>
<path d="M167.574 193.073C165.834 192.019 164.065 190.989 162.266 189.984C162.045 189.863 161.825 189.739 161.604 189.619L162.789 189.112L165.986 187.738L166.017 187.724L166.051 187.841L167.574 193.073Z" fill="#FFB6B6"/>
<path d="M172.524 196.139C171.956 195.777 171.391 195.422 170.823 195.071H170.819C169.903 194.496 168.984 193.929 168.064 193.369C167.902 193.27 167.74 193.173 167.574 193.073C165.835 192.019 164.066 190.989 162.267 189.983C162.046 189.863 161.826 189.739 161.605 189.618C158.124 187.688 154.547 185.937 150.886 184.372C148.482 183.36 146.047 182.447 143.587 181.669H143.584L141.651 178.434L132.954 163.868L131.043 160.668C131.043 160.668 124.522 162.597 115.294 164.446C111.936 165.121 108.223 165.783 104.327 166.341C100.163 166.933 95.7954 167.405 91.4553 167.632C89.3852 167.743 87.322 167.798 85.2898 167.781C80.037 167.746 74.9908 167.253 70.5716 166.082C69.0974 164.698 64.654 162.814 61.4713 161.088H61.4679C60.1314 160.365 59.0223 159.672 58.4402 159.056C55.0853 155.508 57.9511 152.742 54.9682 148.87C54.928 147.45 55.0006 146.029 55.1852 144.62C55.2162 144.386 55.2472 144.148 55.2851 143.907L56.2254 127.938L63.2108 127.015L73.8404 125.61L85.3552 124.088L86.6228 134.014C86.6228 134.014 95.5887 133.56 106.949 133.711C125.194 133.959 149.608 135.778 152.915 143.583C153.225 144.317 153.535 145.057 153.845 145.798C154.582 147.568 155.312 149.348 156.036 151.137C158.657 157.612 161.157 164.15 163.441 170.329C164.86 174.173 166.197 177.88 167.426 181.348C168.415 184.138 169.331 186.777 170.168 189.205C170.933 191.423 171.625 193.466 172.242 195.298C172.338 195.584 172.431 195.867 172.524 196.139Z" fill="#2F2E41"/>
<path d="M108.266 99.3884L86.202 80.65L100.557 66.1224L110.572 82.5259L147.694 89.8857C148.81 89.0457 150.147 88.5485 151.54 88.4549C152.934 88.3613 154.325 88.6753 155.544 89.3586C156.762 90.0419 157.756 91.065 158.403 92.3031C159.05 93.5412 159.323 94.9408 159.188 96.3313C159.054 97.7218 158.517 99.0432 157.645 100.134C156.772 101.225 155.601 102.039 154.274 102.476C152.947 102.913 151.522 102.954 150.172 102.595C148.822 102.235 147.605 101.491 146.671 100.453L108.266 99.3884Z" fill="#A0616A"/>
<path d="M66.7034 56.0233C64.1535 64.3185 88.4377 84.1026 88.4377 84.1026C88.7076 82.1111 102.476 99.2835 103.413 97.7283C106.075 93.3083 109.004 82.3826 112.078 80.9862C113.835 80.1876 103.752 69.0878 103.752 69.0878C103.752 69.0878 98.6088 62.283 91.8177 53.6586C89.943 51.1848 87.4729 49.2254 84.6372 47.963C81.8016 46.7007 78.6927 46.1762 75.5998 46.4386C75.5998 46.4386 69.2532 47.7282 66.7034 56.0233Z" fill="#3F3D56"/>
<path d="M77.4402 37.6595C85.6818 37.6595 92.363 30.9783 92.363 22.7367C92.363 14.4951 85.6818 7.8139 77.4402 7.8139C69.1986 7.8139 62.5174 14.4951 62.5174 22.7367C62.5174 30.9783 69.1986 37.6595 77.4402 37.6595Z" fill="#A0616A"/>
<path d="M84.9018 47.5226C88.1167 49.4339 90.0398 52.9456 91.1438 56.5191C93.1877 63.135 94.418 69.9752 94.8075 76.8886L95.9735 97.5862L110.415 141.657C97.899 152.247 50.8537 144.064 50.8537 144.064C50.8537 144.064 49.4095 143.583 50.8537 142.138C52.2978 140.694 53.7037 141.974 52.2596 140.53C50.8154 139.085 51.8109 140.694 52.2923 139.25C52.7737 137.806 52.2923 138.769 51.811 138.287C51.3296 137.806 55.5376 133.474 55.5376 133.474L51.6865 108.176L46.8727 57.1502C52.6493 49.9295 64.2667 45.6729 64.2667 45.6729L67.2685 40.2697L82.2775 41.4704L84.9018 47.5226Z" fill="#3F3D56"/>
<path d="M89.7416 14.8085C90.9015 15.6736 91.7607 16.8806 92.1985 18.2597C92.3667 16.006 92.3773 13.7433 92.2304 11.4881C92.0546 9.90334 90.9389 9.54688 89.647 9.13383C88.4803 8.76066 87.1608 8.33913 86.8058 6.80071C82.1149 2.23734 73.9491 2.46745 68.3606 4.05922C65.2855 4.93515 63.5161 6.06053 63.3578 6.7198L63.325 6.85551L63.2001 6.91795C60.8298 8.10313 60.3683 11.8457 60.3988 14.7765C60.4566 20.2985 62.3632 26.57 63.4373 27.0795C63.4941 27.1065 63.5085 27.0959 63.5331 27.0754C65.1504 25.7829 67.1235 27.1736 67.9907 27.9296C68.5021 24.4976 70.1489 21.336 72.6679 18.9498C75.187 16.5635 78.4331 15.0902 81.8877 14.7651C83.0159 14.6561 84.1351 14.4684 85.2372 14.2035C85.7962 14.0589 86.3709 13.9835 86.9483 13.979C87.9422 13.9639 88.917 14.2533 89.7416 14.8085Z" fill="#2F2E41"/>
<path d="M70.9378 121.871L66.3729 119.533C66.1283 119.359 65.9546 119.103 65.8835 118.811C65.8123 118.519 65.8485 118.211 65.9854 117.944C66.1223 117.677 66.3508 117.468 66.6291 117.355C66.9075 117.242 67.2171 117.233 67.5014 117.33L72.0663 119.668C72.3109 119.842 72.4846 120.098 72.5558 120.39C72.6269 120.682 72.5907 120.99 72.4538 121.257C72.3169 121.524 72.0884 121.733 71.8101 121.846C71.5318 121.959 71.2221 121.968 70.9378 121.871Z" fill="#F4ACB7"/>
<path d="M55.5747 115.608L48.0654 87.6517L68.1324 83.853L67.0532 103.042L93.4195 130.19C94.8154 130.133 96.1977 130.484 97.3979 131.199C98.5981 131.914 99.5643 132.962 100.179 134.217C100.793 135.472 101.029 136.878 100.858 138.264C100.688 139.651 100.117 140.958 99.216 142.026C98.3152 143.093 97.1231 143.876 95.7852 144.278C94.4473 144.68 93.0213 144.684 91.6811 144.29C90.3409 143.895 89.1444 143.119 88.2376 142.057C87.3307 140.994 86.7526 139.69 86.5738 138.305L55.5747 115.608Z" fill="#A0616A"/>
<path d="M46.0122 56.3073C39.2008 61.6846 47.9433 91.7629 47.9433 91.7629C49.2969 90.2774 50.8698 112.232 52.5243 111.484C57.2264 109.359 65.8449 102.033 69.1674 102.63C71.0676 102.972 69.0768 88.1087 69.0768 88.1087C69.0768 88.1087 68.7107 79.5865 68.0225 68.6309C67.8854 65.53 66.966 62.5142 65.3498 59.8642C63.7336 57.2142 61.4732 55.0162 58.7791 53.4748C58.7791 53.4748 52.8237 50.93 46.0122 56.3073Z" fill="#3F3D56"/>
<path d="M282.1 133.305L9.49836 132.995C7.96641 129.747 6.60627 126.421 5.42358 123.03L275.631 123.316C278.232 126.336 280.408 129.697 282.1 133.305Z" fill="#3F3D56"/>
<path d="M195.275 205.577C193.867 206.259 192.445 206.917 191.011 207.55C188.628 206.197 186.272 204.781 183.929 203.334L192.616 199.518L195.275 205.577Z" fill="#FFB6B6"/>
<path d="M258.612 158.112C257.199 160.007 255.742 161.863 254.24 163.682C252.856 165.359 251.434 167.005 249.976 168.618C249.373 169.286 248.764 169.951 248.14 170.609C246.993 171.838 245.821 173.047 244.624 174.236C242.467 174.914 238.1 176.109 233.419 177.225C230.012 178.035 226.44 178.803 223.43 179.292C221.744 179.595 220.04 179.776 218.329 179.836C216.296 179.854 214.233 179.798 212.163 179.688C209.828 179.564 207.489 179.371 205.178 179.123C199.167 178.493 193.346 177.511 188.324 176.502C186.485 176.137 184.755 175.765 183.164 175.403C180.15 174.725 177.629 174.091 175.803 173.609C173.747 173.071 172.576 172.723 172.576 172.723L167.426 181.348L164.753 185.823L162.79 189.112L162.267 189.984C162.046 189.863 161.826 189.739 161.605 189.619C158.124 187.688 154.547 185.937 150.886 184.373C148.482 183.36 146.047 182.447 143.587 181.669H143.584C142.643 181.373 141.7 181.094 140.752 180.839C141.049 180.043 141.348 179.242 141.651 178.434C142.216 176.929 142.793 175.41 143.381 173.877C144.652 170.557 145.967 167.188 147.321 163.837C148.43 161.085 149.56 158.343 150.704 155.639C151.231 154.392 152.302 153.297 153.8 152.336C154.516 151.884 155.263 151.484 156.036 151.137C160.324 149.184 166.641 147.913 173.602 147.097C174.178 147.031 174.756 146.966 175.338 146.904C181.101 146.298 187.215 145.984 192.933 145.839C195.795 145.767 198.557 145.74 201.127 145.736C201.957 145.736 202.764 145.738 203.548 145.743H203.552C205.67 145.753 207.62 145.784 209.335 145.819C209.669 145.826 209.993 145.836 210.31 145.843H210.313C210.527 145.846 210.737 145.853 210.944 145.857C214.695 145.953 216.996 146.07 216.996 146.07L217.888 139.071L218.07 137.659L218.242 136.316V136.312L218.263 136.143L218.404 136.14L220.884 136.092L241.73 135.685L253.118 135.461L251.313 143.198L248.333 155.963C248.636 157.981 258.715 156.4 258.612 158.112Z" fill="#2F2E41"/>
<path d="M197.845 204.302C196.994 204.736 196.136 205.164 195.275 205.577C193.866 206.259 192.445 206.917 191.011 207.551C188.627 206.197 186.271 204.781 183.929 203.335C180.106 200.972 176.32 198.526 172.524 196.139C171.956 195.777 171.391 195.423 170.823 195.071H170.819C169.256 192.75 167.661 190.332 166.052 187.841C166.028 187.807 166.007 187.772 165.987 187.738C165.573 187.104 165.162 186.466 164.754 185.823C162.181 181.793 159.594 177.591 157.083 173.299L163.441 170.33L175.263 164.812L177.302 163.861L183.164 175.403L188.393 185.699L189.557 187.989L197.845 204.302Z" fill="#2F2E41"/>
<path d="M199.626 148.887L229.765 119.821L238.118 96.1683L225.797 90.8103C219.468 96.873 212.626 115.757 212.626 115.757L191.886 142.143C191.725 142.198 191.563 142.257 191.404 142.327C190.47 142.739 189.658 143.385 189.046 144.202C188.435 145.02 188.044 145.981 187.913 146.994C187.782 148.006 187.914 149.035 188.296 149.982C188.679 150.929 189.299 151.76 190.097 152.397C190.895 153.034 191.844 153.454 192.852 153.617C193.86 153.78 194.893 153.68 195.851 153.327C196.809 152.974 197.659 152.38 198.321 151.602C198.982 150.824 199.431 149.889 199.626 148.887Z" fill="#FFB8B8"/>
<path d="M222.33 93.4514L237.959 98.4132L238.018 98.4033C243.835 97.4289 248.662 87.9279 251.687 80.1291C252.683 77.5568 252.664 74.7025 251.635 72.1433C250.607 69.5841 248.645 67.5109 246.146 66.3429C244.297 65.4937 242.247 65.1786 240.229 65.4333C238.21 65.688 236.303 66.5023 234.723 67.7842L226.697 74.3422L222.33 93.4514Z" fill="#F4ACB7"/>
<path d="M258.548 158.461L258.639 158.34C263.516 151.872 256.846 135.856 255.838 133.534L260.372 132.191L259.582 123.557L259.201 119.708L262.727 116.36L262.738 116.275L265.163 99.0204L268.335 87.6007C269.531 83.2836 269.556 78.726 268.408 74.3959C267.261 70.0657 264.981 66.119 261.804 62.9609L255.319 56.5222L247.55 44.361L234.523 44.0247L229.839 52.3462C225.482 53.2352 221.576 55.6243 218.8 59.0973C216.024 62.5703 214.555 66.9071 214.648 71.3522L215.089 93.5055L210.414 120.953L210.283 125.939L205.696 130.78L206.544 135.675L203.112 137.042L201.433 143.997C200.791 144.799 196.557 150.152 196.518 151.644C196.512 151.868 196.672 152.089 197.021 152.338C199.762 154.3 215.083 158.549 221.978 155.994C229.323 153.275 258.108 158.382 258.398 158.434L258.548 158.461Z" fill="#F4ACB7"/>
<path d="M239.899 40.2968C249.431 40.2968 257.157 32.5701 257.157 23.0388C257.157 13.5075 249.431 5.78082 239.899 5.78082C230.368 5.78082 222.641 13.5075 222.641 23.0388C222.641 32.5701 230.368 40.2968 239.899 40.2968Z" fill="#FFB8B8"/>
<path d="M237.794 40.5275C240.467 40.5691 243.138 40.3825 245.779 39.9695C248.396 39.4372 254.252 35.1461 255.885 32.5639C257.097 30.6454 257.873 27.6495 258.31 25.4742C258.899 22.5956 258.876 19.6255 258.244 16.7561C257.612 13.8868 256.384 11.1822 254.64 8.81745C253.97 7.82835 253.045 7.03879 251.963 6.53227C251.867 6.49477 251.768 6.46154 251.669 6.43312C250.092 6.01824 248.675 5.14156 247.6 3.91561C247.392 3.66764 247.166 3.43501 246.924 3.21953C245.709 2.19425 244.268 1.47104 242.72 1.10901C240.222 0.4403 236.606 1.10408 231.973 3.08384C229.646 4.0785 227.1 3.71853 225.142 3.29376C225.032 3.27254 224.919 3.28046 224.813 3.31672C224.707 3.35297 224.612 3.41631 224.539 3.50043C223.706 4.28257 222.607 4.72037 221.465 4.72585C220.765 4.75659 220.03 5.7257 219.143 6.98946C218.941 7.27633 218.706 7.61114 218.537 7.81478L218.514 7.42354L218.118 7.85999C217.496 8.54596 217.057 9.37826 216.843 10.2794C216.629 11.1805 216.647 12.1211 216.894 13.0137C217.141 13.9063 217.61 14.7217 218.258 15.3841C218.905 16.0465 219.71 16.5344 220.596 16.8022C221.3 16.9895 222.022 17.1045 222.749 17.1453C223.19 17.1849 223.645 17.2259 224.082 17.3017C225.484 17.5887 226.787 18.2344 227.865 19.1755C228.943 20.1167 229.758 21.3213 230.231 22.6716C230.343 22.9838 230.526 23.266 230.764 23.4966C231.002 23.7271 231.29 23.8999 231.606 24.0014C231.922 24.1029 232.256 24.1306 232.584 24.0822C232.912 24.0338 233.225 23.9107 233.498 23.7223C233.953 23.368 234.487 23.129 235.054 23.0257C235.621 22.9224 236.205 22.9579 236.756 23.129C237.232 23.3936 237.602 23.8138 237.805 24.3191C238.052 24.882 238.46 25.3588 238.979 25.6885C240.753 26.603 240.875 30.6544 240.238 34.0317C239.624 37.2872 238.41 39.6422 237.286 39.7586C236.421 39.8481 236.322 39.9096 236.259 40.0626L236.203 40.1996L236.3 40.3277C236.778 40.501 237.288 40.5691 237.794 40.5275Z" fill="#2F2E41"/>
<path d="M226.616 88.2335L219.961 74.967C210.303 75.6267 191.133 86.7943 191.133 86.7943L154.863 94.4843C153.789 94.0713 152.625 93.9486 151.488 94.1286C150.351 94.3086 149.281 94.7849 148.387 95.5096C147.493 96.2343 146.805 97.1818 146.393 98.2568C145.982 99.3317 145.86 100.496 146.042 101.633C146.223 102.77 146.701 103.839 147.426 104.732C148.152 105.625 149.101 106.312 150.176 106.722C151.251 107.133 152.416 107.253 153.553 107.07C154.689 106.887 155.757 106.408 156.65 105.682L202.787 102.374L226.616 88.2335Z" fill="#FFB8B8"/>
<path d="M223.932 90.4119L241.31 77.4971L244.372 66.4655C244.965 64.2976 244.94 62.007 244.299 59.8527C243.659 57.6983 242.429 55.766 240.748 54.2741C238.455 52.267 235.487 51.2053 232.441 51.3036C229.396 51.4018 226.502 52.6527 224.344 54.8033C217.804 61.331 210.345 70.4377 211.947 76.7525L211.963 76.8165L223.932 90.4119Z" fill="#F4ACB7"/>
<path d="M202.419 124.956H155.919V131.156H202.419V124.956Z" fill="white"/>
<path d="M83.5843 124.956H37.084V131.156H83.5843V124.956Z" fill="white"/>
<path d="M89.0151 95.1398V124.66C89.0154 125.036 89.165 125.397 89.431 125.663C89.697 125.929 90.0577 126.079 90.4339 126.079H134.18C134.556 126.079 134.917 125.929 135.183 125.663C135.449 125.397 135.599 125.036 135.599 124.66V95.1398C135.598 94.7639 135.448 94.4038 135.182 94.1381C134.916 93.8725 134.556 93.7231 134.18 93.7226H90.4339C90.0581 93.7231 89.6977 93.8725 89.4318 94.1381C89.1659 94.4038 89.016 94.764 89.0151 95.1398Z" fill="#3F3D56"/>
<path d="M90.0408 95.507V124.296C90.0412 124.497 90.1212 124.69 90.2633 124.832C90.4054 124.974 90.5981 125.054 90.7991 125.054H133.815C134.016 125.054 134.209 124.974 134.351 124.832C134.493 124.69 134.573 124.497 134.574 124.296V95.507C134.574 95.3057 134.494 95.1127 134.352 94.9703C134.209 94.8278 134.017 94.7476 133.815 94.7471H90.7991C90.5979 94.7476 90.405 94.8278 90.2628 94.9703C90.1207 95.1127 90.0409 95.3057 90.0408 95.507Z" fill="#F4ACB7"/>
<path d="M88.0998 130.417C88.18 130.518 88.2818 130.599 88.3978 130.654C88.5137 130.71 88.6407 130.738 88.7692 130.738H135.611C135.739 130.737 135.866 130.709 135.981 130.654C136.097 130.598 136.199 130.518 136.279 130.419C136.36 130.319 136.418 130.203 136.448 130.078C136.478 129.954 136.48 129.824 136.454 129.699L135.727 126.245C135.696 126.104 135.632 125.973 135.538 125.864C135.444 125.754 135.324 125.67 135.19 125.619C135.092 125.581 134.989 125.561 134.884 125.561H89.4935C89.3888 125.561 89.285 125.581 89.1876 125.619C89.053 125.67 88.9334 125.754 88.8397 125.864C88.7459 125.973 88.681 126.104 88.6509 126.245L87.9238 129.699C87.8979 129.824 87.9003 129.954 87.9307 130.078C87.9612 130.202 88.0189 130.318 88.0998 130.417Z" fill="#2F2E41"/>
<path d="M133.276 127.049H134.383C134.475 127.049 134.551 126.974 134.551 126.881V126.352C134.551 126.259 134.475 126.183 134.383 126.183H133.276C133.183 126.183 133.108 126.259 133.108 126.352V126.881C133.108 126.974 133.183 127.049 133.276 127.049Z" fill="#3F3D56"/>
<path d="M130.391 127.049H131.498C131.591 127.049 131.666 126.974 131.666 126.881V126.352C131.666 126.259 131.591 126.183 131.498 126.183H130.391C130.298 126.183 130.223 126.259 130.223 126.352V126.881C130.223 126.974 130.298 127.049 130.391 127.049Z" fill="#3F3D56"/>
<path d="M127.505 127.049H128.612C128.704 127.049 128.78 126.974 128.78 126.881V126.352C128.78 126.259 128.704 126.183 128.612 126.183H127.505C127.412 126.183 127.337 126.259 127.337 126.352V126.881C127.337 126.974 127.412 127.049 127.505 127.049Z" fill="#3F3D56"/>
<path d="M124.62 127.049H125.727C125.82 127.049 125.895 126.974 125.895 126.881V126.352C125.895 126.259 125.82 126.183 125.727 126.183H124.62C124.528 126.183 124.452 126.259 124.452 126.352V126.881C124.452 126.974 124.528 127.049 124.62 127.049Z" fill="#3F3D56"/>
<path d="M121.736 127.049H122.842C122.935 127.049 123.01 126.974 123.01 126.881V126.352C123.01 126.259 122.935 126.183 122.842 126.183H121.736C121.643 126.183 121.568 126.259 121.568 126.352V126.881C121.568 126.974 121.643 127.049 121.736 127.049Z" fill="#3F3D56"/>
<path d="M118.849 127.049H119.956C120.049 127.049 120.124 126.974 120.124 126.881V126.352C120.124 126.259 120.049 126.183 119.956 126.183H118.849C118.757 126.183 118.681 126.259 118.681 126.352V126.881C118.681 126.974 118.757 127.049 118.849 127.049Z" fill="#3F3D56"/>
<path d="M115.965 127.049H117.071C117.164 127.049 117.239 126.974 117.239 126.881V126.352C117.239 126.259 117.164 126.183 117.071 126.183H115.965C115.872 126.183 115.797 126.259 115.797 126.352V126.881C115.797 126.974 115.872 127.049 115.965 127.049Z" fill="#3F3D56"/>
<path d="M113.078 127.049H114.185C114.278 127.049 114.353 126.974 114.353 126.881V126.352C114.353 126.259 114.278 126.183 114.185 126.183H113.078C112.986 126.183 112.91 126.259 112.91 126.352V126.881C112.91 126.974 112.986 127.049 113.078 127.049Z" fill="#3F3D56"/>
<path d="M110.194 127.049H111.3C111.393 127.049 111.468 126.974 111.468 126.881V126.352C111.468 126.259 111.393 126.183 111.3 126.183H110.194C110.101 126.183 110.026 126.259 110.026 126.352V126.881C110.026 126.974 110.101 127.049 110.194 127.049Z" fill="#3F3D56"/>
<path d="M107.308 127.049H108.414C108.507 127.049 108.582 126.974 108.582 126.881V126.352C108.582 126.259 108.507 126.183 108.414 126.183H107.308C107.215 126.183 107.139 126.259 107.139 126.352V126.881C107.139 126.974 107.215 127.049 107.308 127.049Z" fill="#3F3D56"/>
<path d="M104.423 127.049H105.529C105.622 127.049 105.697 126.974 105.697 126.881V126.352C105.697 126.259 105.622 126.183 105.529 126.183H104.423C104.33 126.183 104.255 126.259 104.255 126.352V126.881C104.255 126.974 104.33 127.049 104.423 127.049Z" fill="#3F3D56"/>
<path d="M101.537 127.049H102.643C102.736 127.049 102.811 126.974 102.811 126.881V126.352C102.811 126.259 102.736 126.183 102.643 126.183H101.537C101.444 126.183 101.368 126.259 101.368 126.352V126.881C101.368 126.974 101.444 127.049 101.537 127.049Z" fill="#3F3D56"/>
<path d="M98.6518 127.049H99.7582C99.8511 127.049 99.9264 126.974 99.9264 126.881V126.352C99.9264 126.259 99.8511 126.183 99.7582 126.183H98.6518C98.559 126.183 98.4837 126.259 98.4837 126.352V126.881C98.4837 126.974 98.559 127.049 98.6518 127.049Z" fill="#3F3D56"/>
<path d="M95.7657 127.049H96.8721C96.9649 127.049 97.0402 126.974 97.0402 126.881V126.352C97.0402 126.259 96.9649 126.183 96.8721 126.183H95.7657C95.6728 126.183 95.5975 126.259 95.5975 126.352V126.881C95.5975 126.974 95.6728 127.049 95.7657 127.049Z" fill="#3F3D56"/>
<path d="M92.8809 127.049H93.9873C94.0802 127.049 94.1555 126.974 94.1555 126.881V126.352C94.1555 126.259 94.0802 126.183 93.9873 126.183H92.8809C92.788 126.183 92.7128 126.259 92.7128 126.352V126.881C92.7128 126.974 92.788 127.049 92.8809 127.049Z" fill="#3F3D56"/>
<path d="M89.9962 127.049H91.1026C91.1955 127.049 91.2708 126.974 91.2708 126.881V126.352C91.2708 126.259 91.1955 126.183 91.1026 126.183H89.9962C89.9033 126.183 89.828 126.259 89.828 126.352V126.881C89.828 126.974 89.9033 127.049 89.9962 127.049Z" fill="#3F3D56"/>
<path d="M133.31 128.492H134.417C134.51 128.492 134.585 128.416 134.585 128.324V127.794C134.585 127.701 134.51 127.626 134.417 127.626H133.31C133.217 127.626 133.142 127.701 133.142 127.794V128.324C133.142 128.416 133.217 128.492 133.31 128.492Z" fill="#3F3D56"/>
<path d="M130.426 128.492H131.532C131.625 128.492 131.7 128.416 131.7 128.324V127.794C131.7 127.701 131.625 127.626 131.532 127.626H130.426C130.333 127.626 130.257 127.701 130.257 127.794V128.324C130.257 128.416 130.333 128.492 130.426 128.492Z" fill="#3F3D56"/>
<path d="M127.541 128.492H128.647C128.74 128.492 128.815 128.416 128.815 128.324V127.794C128.815 127.701 128.74 127.626 128.647 127.626H127.541C127.448 127.626 127.373 127.701 127.373 127.794V128.324C127.373 128.416 127.448 128.492 127.541 128.492Z" fill="#3F3D56"/>
<path d="M124.655 128.492H125.761C125.854 128.492 125.929 128.416 125.929 128.324V127.794C125.929 127.701 125.854 127.626 125.761 127.626H124.655C124.562 127.626 124.487 127.701 124.487 127.794V128.324C124.487 128.416 124.562 128.492 124.655 128.492Z" fill="#3F3D56"/>
<path d="M121.77 128.492H122.876C122.969 128.492 123.044 128.416 123.044 128.324V127.794C123.044 127.701 122.969 127.626 122.876 127.626H121.77C121.677 127.626 121.602 127.701 121.602 127.794V128.324C121.602 128.416 121.677 128.492 121.77 128.492Z" fill="#3F3D56"/>
<path d="M118.884 128.492H119.99C120.083 128.492 120.158 128.416 120.158 128.324V127.794C120.158 127.701 120.083 127.626 119.99 127.626H118.884C118.791 127.626 118.716 127.701 118.716 127.794V128.324C118.716 128.416 118.791 128.492 118.884 128.492Z" fill="#3F3D56"/>
<path d="M115.999 128.492H117.105C117.198 128.492 117.274 128.416 117.274 128.324V127.794C117.274 127.701 117.198 127.626 117.105 127.626H115.999C115.906 127.626 115.831 127.701 115.831 127.794V128.324C115.831 128.416 115.906 128.492 115.999 128.492Z" fill="#3F3D56"/>
<path d="M113.113 128.492H114.219C114.312 128.492 114.387 128.416 114.387 128.324V127.794C114.387 127.701 114.312 127.626 114.219 127.626H113.113C113.02 127.626 112.945 127.701 112.945 127.794V128.324C112.945 128.416 113.02 128.492 113.113 128.492Z" fill="#3F3D56"/>
<path d="M110.228 128.492H111.334C111.427 128.492 111.503 128.416 111.503 128.324V127.794C111.503 127.701 111.427 127.626 111.334 127.626H110.228C110.135 127.626 110.06 127.701 110.06 127.794V128.324C110.06 128.416 110.135 128.492 110.228 128.492Z" fill="#3F3D56"/>
<path d="M107.342 128.492H108.448C108.541 128.492 108.616 128.416 108.616 128.324V127.794C108.616 127.701 108.541 127.626 108.448 127.626H107.342C107.249 127.626 107.174 127.701 107.174 127.794V128.324C107.174 128.416 107.249 128.492 107.342 128.492Z" fill="#3F3D56"/>
<path d="M104.457 128.492H105.564C105.656 128.492 105.732 128.416 105.732 128.324V127.794C105.732 127.701 105.656 127.626 105.564 127.626H104.457C104.364 127.626 104.289 127.701 104.289 127.794V128.324C104.289 128.416 104.364 128.492 104.457 128.492Z" fill="#3F3D56"/>
<path d="M101.571 128.492H102.677C102.77 128.492 102.845 128.416 102.845 128.324V127.794C102.845 127.701 102.77 127.626 102.677 127.626H101.571C101.478 127.626 101.403 127.701 101.403 127.794V128.324C101.403 128.416 101.478 128.492 101.571 128.492Z" fill="#3F3D56"/>
<path d="M98.6861 128.492H99.7925C99.8854 128.492 99.9607 128.416 99.9607 128.324V127.794C99.9607 127.701 99.8854 127.626 99.7925 127.626H98.6861C98.5933 127.626 98.518 127.701 98.518 127.794V128.324C98.518 128.416 98.5933 128.492 98.6861 128.492Z" fill="#3F3D56"/>
<path d="M95.7999 128.492H96.9063C96.9992 128.492 97.0745 128.416 97.0745 128.324V127.794C97.0745 127.701 96.9992 127.626 96.9063 127.626H95.7999C95.707 127.626 95.6318 127.701 95.6318 127.794V128.324C95.6318 128.416 95.707 128.492 95.7999 128.492Z" fill="#3F3D56"/>
<path d="M92.9152 128.492H94.0216C94.1145 128.492 94.1898 128.416 94.1898 128.324V127.794C94.1898 127.701 94.1145 127.626 94.0216 127.626H92.9152C92.8223 127.626 92.7471 127.701 92.7471 127.794V128.324C92.7471 128.416 92.8223 128.492 92.9152 128.492Z" fill="#3F3D56"/>
<path d="M90.0305 128.492H91.1369C91.2298 128.492 91.3051 128.416 91.3051 128.324V127.794C91.3051 127.701 91.2298 127.626 91.1369 127.626H90.0305C89.9376 127.626 89.8623 127.701 89.8623 127.794V128.324C89.8623 128.416 89.9376 128.492 90.0305 128.492Z" fill="#3F3D56"/>
<path d="M109.362 130.223H120.567C120.66 130.223 120.735 130.148 120.735 130.055V129.525C120.735 129.433 120.66 129.357 120.567 129.357H109.362C109.269 129.357 109.194 129.433 109.194 129.525V130.055C109.194 130.148 109.269 130.223 109.362 130.223Z" fill="#3F3D56"/>
</g>
<defs>
<clipPath id="clip0_15_95">
<rect width="287" height="218.072" fill="white"/>
</clipPath>
</defs>
</svg>
