<svg width="277" height="237" viewBox="0 0 277 237" fill="none" xmlns="http://www.w3.org/2000/svg">
<g clip-path="url(#clip0_15_53)">
<path d="M128.968 216.307C130.574 216.872 132.299 217.013 133.975 216.718C135.652 216.423 137.224 215.701 138.54 214.621C141.893 211.807 142.944 207.173 143.799 202.88L146.329 190.183L141.033 193.83C137.224 196.452 133.329 199.159 130.692 202.958C128.055 206.756 126.905 211.942 129.023 216.052" fill="#E4E4E4"/>
<path d="M129.784 232.563C129.117 227.707 128.432 222.787 128.9 217.879C129.316 213.519 130.646 209.262 133.353 205.77C134.791 203.92 136.54 202.335 138.522 201.087C139.038 200.761 139.514 201.579 138.999 201.904C135.57 204.071 132.918 207.272 131.424 211.044C129.775 215.238 129.51 219.81 129.794 224.266C129.966 226.961 130.331 229.638 130.697 232.311C130.726 232.432 130.708 232.56 130.647 232.668C130.585 232.776 130.485 232.856 130.367 232.894C130.246 232.926 130.117 232.91 130.008 232.848C129.899 232.786 129.818 232.683 129.784 232.563L129.784 232.563Z" fill="#F2F2F2"/>
<path d="M134.584 224.771C135.272 225.818 136.219 226.67 137.333 227.245C138.446 227.82 139.689 228.098 140.942 228.053C144.161 227.9 146.844 225.654 149.259 223.521L156.403 217.213L151.675 216.987C148.275 216.824 144.787 216.672 141.548 217.721C138.309 218.771 135.322 221.294 134.73 224.646" fill="#E4E4E4"/>
<path d="M127.901 235.355C131.11 229.677 134.832 223.366 141.484 221.349C143.333 220.79 145.272 220.59 147.197 220.759C147.804 220.811 147.652 221.746 147.047 221.694C143.821 221.426 140.601 222.278 137.929 224.106C135.359 225.856 133.357 228.289 131.663 230.868C130.625 232.449 129.696 234.096 128.766 235.741C128.469 236.267 127.601 235.887 127.901 235.355Z" fill="#F2F2F2"/>
<path d="M234.428 166.526H7.62939e-06V0H234.428V166.526Z" fill="white"/>
<path d="M19.0969 68.3951C18.4911 68.3951 17.9101 68.6357 17.4817 69.0641C17.0533 69.4925 16.8127 70.0734 16.8127 70.6792C16.8127 71.285 17.0533 71.866 17.4817 72.2944C17.9101 72.7228 18.4911 72.9634 19.0969 72.9634H98.2637C98.8687 72.9623 99.4486 72.7211 99.876 72.2929C100.303 71.8646 100.543 71.2843 100.543 70.6792C100.543 70.0742 100.303 69.4939 99.876 69.0656C99.4486 68.6374 98.8687 68.3962 98.2637 68.3951H19.0969Z" fill="#F4ACB7"/>
<path d="M19.0954 82.1C18.4896 82.0987 17.9081 82.3381 17.4788 82.7656C17.0495 83.193 16.8077 83.7735 16.8064 84.3793C16.8051 84.9851 17.0445 85.5666 17.472 85.9959C17.8995 86.4251 18.4799 86.667 19.0857 86.6683H98.3206C98.9264 86.6683 99.5074 86.4277 99.9358 85.9993C100.364 85.5709 100.605 84.9899 100.605 84.3841C100.605 83.7783 100.364 83.1974 99.9358 82.769C99.5074 82.3406 98.9264 82.1 98.3206 82.1H19.0954Z" fill="#F4ACB7"/>
<path d="M19.0954 95.6091C18.4896 95.6079 17.9081 95.8473 17.4788 96.2747C17.0495 96.7022 16.8077 97.2827 16.8064 97.8885C16.8051 98.4943 17.0445 99.0758 17.472 99.505C17.8995 99.9343 18.4799 100.176 19.0857 100.177H36.9159C37.5217 100.177 38.1027 99.9368 38.5311 99.5084C38.9594 99.0801 39.2001 98.4991 39.2001 97.8933C39.2001 97.2875 38.9594 96.7065 38.5311 96.2782C38.1027 95.8498 37.5217 95.6091 36.9159 95.6091H19.0954Z" fill="#F4ACB7"/>
<path d="M234.428 166.526H7.62939e-06V0H234.428V166.526ZM3.85362 162.672H230.574V3.85361H3.85362V162.672Z" fill="#E5E5E5"/>
<path d="M160.665 129.935C159.575 129.933 158.53 130.364 157.759 131.133C156.987 131.902 156.552 132.946 156.55 134.035C156.548 135.124 156.978 136.17 157.746 136.942C158.515 137.714 159.558 138.149 160.647 138.152H199.88C200.42 138.153 200.954 138.047 201.453 137.841C201.952 137.634 202.406 137.332 202.788 136.95C203.17 136.569 203.473 136.116 203.679 135.617C203.886 135.118 203.993 134.583 203.993 134.044C203.993 133.504 203.886 132.969 203.679 132.47C203.473 131.972 203.17 131.518 202.788 131.137C202.406 130.755 201.952 130.453 201.453 130.246C200.954 130.04 200.42 129.934 199.88 129.935H160.665Z" fill="#E4E4E4"/>
<path d="M160.665 80.1775C159.575 80.176 158.53 80.607 157.759 81.3759C156.987 82.1447 156.552 83.1884 156.55 84.2776C156.548 85.3668 156.978 86.4123 157.746 87.1844C158.515 87.9565 159.558 88.3919 160.647 88.395H199.88C200.42 88.3955 200.954 88.2897 201.453 88.0834C201.952 87.8772 202.406 87.5746 202.788 87.193C203.17 86.8114 203.473 86.3583 203.679 85.8595C203.886 85.3608 203.993 84.8262 203.993 84.2862C203.993 83.7463 203.886 83.2117 203.679 82.7129C203.473 82.2142 203.17 81.7611 202.788 81.3795C202.406 80.9979 201.952 80.6953 201.453 80.4891C200.954 80.2828 200.42 80.177 199.88 80.1775H160.665Z" fill="#E4E4E4"/>
<path d="M19.0954 131.838C18.7954 131.837 18.4982 131.896 18.2209 132.01C17.9435 132.124 17.6914 132.292 17.4788 132.503C17.2663 132.715 17.0975 132.966 16.9821 133.243C16.8667 133.52 16.807 133.817 16.8064 134.117C16.8057 134.417 16.8642 134.714 16.9784 134.992C17.0926 135.269 17.2603 135.521 17.472 135.734C17.6837 135.946 17.9351 136.115 18.212 136.23C18.4889 136.346 18.7858 136.405 19.0857 136.406H98.3206C98.9264 136.406 99.5074 136.165 99.9358 135.737C100.364 135.309 100.605 134.728 100.605 134.122C100.605 133.516 100.364 132.935 99.9358 132.507C99.5074 132.078 98.9264 131.838 98.3206 131.838H19.0954Z" fill="#E4E4E4"/>
<path d="M19.0954 145.347C18.7954 145.346 18.4982 145.405 18.2209 145.519C17.9435 145.633 17.6914 145.801 17.4788 146.013C17.2663 146.224 17.0975 146.476 16.9821 146.753C16.8667 147.029 16.807 147.326 16.8064 147.626C16.8057 147.926 16.8642 148.223 16.9784 148.501C17.0926 148.778 17.2603 149.03 17.472 149.243C17.6837 149.455 17.9351 149.624 18.212 149.74C18.4889 149.855 18.7858 149.915 19.0857 149.915H36.9159C37.5217 149.915 38.1027 149.675 38.5311 149.246C38.9594 148.818 39.2001 148.237 39.2001 147.631C39.2001 147.025 38.9594 146.444 38.5311 146.016C38.1027 145.588 37.5217 145.347 36.9159 145.347H19.0954Z" fill="#E4E4E4"/>
<path d="M19.0969 118.133C18.4911 118.133 17.9101 118.374 17.4817 118.802C17.0533 119.23 16.8127 119.811 16.8127 120.417C16.8127 121.023 17.0533 121.604 17.4817 122.032C17.9101 122.461 18.4911 122.701 19.0969 122.701H98.2637C98.8687 122.7 99.4486 122.459 99.876 122.031C100.303 121.602 100.543 121.022 100.543 120.417C100.543 119.812 100.303 119.232 99.876 118.803C99.4486 118.375 98.8687 118.134 98.2637 118.133H19.0969Z" fill="#E4E4E4"/>
<path d="M19.0969 18.6573C18.4911 18.6573 17.9101 18.8979 17.4817 19.3263C17.0533 19.7547 16.8127 20.3357 16.8127 20.9415C16.8127 21.5473 17.0533 22.1282 17.4817 22.5566C17.9101 22.985 18.4911 23.2256 19.0969 23.2256H98.2637C98.8687 23.2245 99.4486 22.9833 99.876 22.5551C100.303 22.1268 100.543 21.5465 100.543 20.9415C100.543 20.3364 100.303 19.7561 99.876 19.3278C99.4486 18.8996 98.8687 18.6584 98.2637 18.6573H19.0969Z" fill="#E4E4E4"/>
<path d="M19.0954 32.3622C18.7954 32.3616 18.4982 32.42 18.2209 32.5342C17.9435 32.6484 17.6914 32.8161 17.4788 33.0278C17.2663 33.2395 17.0975 33.4909 16.9821 33.7678C16.8667 34.0447 16.807 34.3416 16.8064 34.6415C16.8057 34.9415 16.8642 35.2386 16.9784 35.516C17.0926 35.7934 17.2603 36.0455 17.472 36.2581C17.6837 36.4706 17.9351 36.6394 18.212 36.7548C18.4889 36.8702 18.7858 36.9299 19.0857 36.9305H98.3206C98.6206 36.9305 98.9176 36.8714 99.1948 36.7566C99.4719 36.6419 99.7237 36.4736 99.9358 36.2615C100.148 36.0494 100.316 35.7976 100.431 35.5205C100.546 35.2433 100.605 34.9463 100.605 34.6464C100.605 34.3464 100.546 34.0494 100.431 33.7722C100.316 33.4951 100.148 33.2433 99.9358 33.0312C99.7237 32.8191 99.4719 32.6509 99.1948 32.5361C98.9176 32.4213 98.6206 32.3622 98.3206 32.3622H19.0954Z" fill="#E4E4E4"/>
<path d="M19.0954 45.8713C18.4896 45.8701 17.9081 46.1095 17.4788 46.5369C17.0495 46.9644 16.8077 47.5449 16.8064 48.1507C16.8051 48.7565 17.0445 49.338 17.472 49.7672C17.8995 50.1965 18.4799 50.4384 19.0857 50.4397H36.9159C37.5217 50.4397 38.1027 50.199 38.5311 49.7707C38.9594 49.3423 39.2001 48.7613 39.2001 48.1555C39.2001 47.5497 38.9594 46.9687 38.5311 46.5404C38.1027 46.112 37.5217 45.8713 36.9159 45.8713H19.0954Z" fill="#E4E4E4"/>
<path d="M160.665 30.4592C159.575 30.4577 158.53 30.8887 157.759 31.6575C156.987 32.4264 156.552 33.4701 156.55 34.5593C156.548 35.6484 156.978 36.694 157.746 37.4661C158.515 38.2381 159.558 38.6736 160.647 38.6767H199.88C200.42 38.6772 200.954 38.5713 201.453 38.3651C201.952 38.1588 202.406 37.8563 202.788 37.4747C203.17 37.0931 203.473 36.64 203.679 36.1412C203.886 35.6425 203.993 35.1078 203.993 34.5679C203.993 34.028 203.886 33.4934 203.679 32.9946C203.473 32.4959 203.17 32.0427 202.788 31.6611C202.406 31.2796 201.952 30.977 201.453 30.7707C200.954 30.5645 200.42 30.4586 199.88 30.4592H160.665Z" fill="#E4E4E4"/>
<path d="M168.929 41.8975C172.999 41.8975 176.298 38.5985 176.298 34.529C176.298 30.4594 172.999 27.1604 168.929 27.1604C164.86 27.1604 161.561 30.4594 161.561 34.529C161.561 38.5985 164.86 41.8975 168.929 41.8975Z" fill="#CACACA"/>
<path d="M181.809 86.068C181.727 86.6595 181.776 87.2617 181.952 87.8322C182.128 88.4027 182.428 88.9277 182.829 89.3701C183.23 89.8124 183.723 90.1615 184.274 90.3927C184.824 90.6238 185.419 90.7314 186.015 90.7079L189.928 99.1819L195.658 98.06L189.964 86.1707C189.858 85.171 189.389 84.2448 188.646 83.5677C187.903 82.8906 186.937 82.5096 185.932 82.497C184.927 82.4843 183.952 82.8408 183.192 83.499C182.432 84.1571 181.94 85.0712 181.809 86.068Z" fill="#FFB6B6"/>
<path d="M221.447 118.136L205.481 110.239L194.216 91.1187L186.341 94.9279L196.561 117.016L222.377 131.919L221.447 118.136Z" fill="#3F3D56"/>
<path d="M185.404 231.166L180.385 231.166L177.997 216.696L185.404 216.696L185.404 231.166Z" fill="#FFB6B6"/>
<path d="M186.683 236.031L170.501 236.03V235.826C170.501 234.155 171.165 232.553 172.346 231.372C173.527 230.191 175.129 229.527 176.799 229.527H176.8L186.684 229.528L186.683 236.031Z" fill="#2F2E41"/>
<path d="M235.5 221.961L231.999 225.556L219.967 217.171L225.135 211.865L235.5 221.961Z" fill="#FFB6B6"/>
<path d="M239.878 224.439L228.587 236.031L228.441 235.889C227.244 234.723 226.559 233.13 226.537 231.46C226.515 229.789 227.158 228.179 228.323 226.982L235.22 219.901L239.878 224.439Z" fill="#2F2E41"/>
<path d="M191.61 145.049H188.139C179.115 154.909 172.227 166.529 167.907 179.178L163.76 191.319L178.539 222.263L187.761 222.427L177.221 189.575L187.84 175.493L188.375 203.801L222.554 221.717L229.394 211.611L201.582 196.403L206.319 172.325C206.319 172.325 215.848 164.378 210.299 151.955L191.61 145.049Z" fill="#2F2E41"/>
<path d="M237.294 113.536L222.87 107.219L206.994 114.254C206.994 114.254 202.498 116.811 205.364 123.361L188.138 145.049C188.138 145.049 188.17 145.058 209.818 151.955L229.349 134.755C232.315 132.143 234.591 128.841 235.977 125.14C237.363 121.439 237.815 117.454 237.294 113.536Z" fill="#3F3D56"/>
<path d="M234.872 107.032C240.425 107.032 244.926 102.531 244.926 96.9779C244.926 91.425 240.425 86.9235 234.872 86.9235C229.319 86.9235 224.817 91.425 224.817 96.9779C224.817 102.531 229.319 107.032 234.872 107.032Z" fill="#FFB6B6"/>
<path d="M247.893 83.6356C245.586 81.7584 242.007 81.3485 239.625 83.13C235.47 80.9494 229.855 82.0868 226.877 85.7126C225.805 87.0173 225.046 88.7824 225.576 90.3854C226.107 91.9884 228.394 92.9307 229.586 91.7349L229.564 92.2275C230.638 93.3028 231.383 94.6622 231.71 96.146C232.038 97.6298 231.935 99.1763 231.414 100.604C230.893 102.031 229.975 103.28 228.768 104.204C227.562 105.127 226.117 105.687 224.603 105.818C227.897 107.149 231.192 108.48 234.487 109.811C235.873 110.371 237.304 110.94 238.799 110.932C240.294 110.924 241.888 110.198 242.468 108.82C242.885 110.099 243.302 111.377 243.719 112.656C246.175 108.749 248.195 104.584 249.743 100.237C250.74 97.4346 251.547 94.504 251.439 91.5313C251.331 88.5586 250.201 85.5129 247.893 83.6356Z" fill="#2F2E41"/>
<path d="M168.929 141.373C172.999 141.373 176.298 138.074 176.298 134.005C176.298 129.935 172.999 126.636 168.929 126.636C164.86 126.636 161.561 129.935 161.561 134.005C161.561 138.074 164.86 141.373 168.929 141.373Z" fill="#CACACA"/>
<path d="M191.854 91.6548C195.923 91.6548 199.222 88.3558 199.222 84.2862C199.222 80.2167 195.923 76.9177 191.854 76.9177C187.784 76.9177 184.485 80.2167 184.485 84.2862C184.485 88.3558 187.784 91.6548 191.854 91.6548Z" fill="#F4ACB7"/>
<path d="M192.043 81.9743C191.961 82.5658 192.01 83.168 192.186 83.7385C192.363 84.3091 192.662 84.834 193.063 85.2764C193.464 85.7188 193.957 86.0678 194.508 86.299C195.058 86.5301 195.653 86.6377 196.249 86.6143L200.162 95.0883L205.892 93.9664L200.198 82.077C200.092 81.0773 199.623 80.1511 198.88 79.474C198.137 78.7969 197.171 78.4159 196.166 78.4033C195.161 78.3906 194.186 78.7471 193.426 79.4053C192.666 80.0634 192.174 80.9775 192.043 81.9743Z" fill="#FFB6B6"/>
<path d="M231.681 114.042L215.715 106.145L204.45 87.025L196.575 90.8341L206.795 112.922L232.611 127.825L231.681 114.042Z" fill="#3F3D56"/>
<path d="M276.592 236.346H120.624C120.515 236.346 120.411 236.303 120.334 236.226C120.257 236.149 120.214 236.045 120.214 235.936C120.214 235.828 120.257 235.724 120.334 235.647C120.411 235.57 120.515 235.527 120.624 235.527H276.592C276.7 235.527 276.804 235.57 276.881 235.647C276.958 235.724 277.001 235.828 277.001 235.936C277.001 236.045 276.958 236.149 276.881 236.226C276.804 236.303 276.7 236.346 276.592 236.346Z" fill="#CACACA"/>
</g>
<defs>
<clipPath id="clip0_15_53">
<rect width="277" height="236.346" fill="white"/>
</clipPath>
</defs>
</svg>
