<svg width="274" height="216" viewBox="0 0 274 216" fill="none" xmlns="http://www.w3.org/2000/svg">
<g clip-path="url(#clip0_15_165)">
<path d="M248.746 0.141052H0.106323V159.381H248.746V0.141052Z" fill="#E6E6E6"/>
<path d="M241.636 20.1136H7.21582V149.96H241.636V20.1136Z" fill="white"/>
<path d="M248.64 0H0V10.5631H248.64V0Z" fill="#F4ACB7"/>
<path d="M7.84988 7.35828C8.93115 7.35828 9.80768 6.48174 9.80768 5.40048C9.80768 4.31922 8.93115 3.44269 7.84988 3.44269C6.76862 3.44269 5.89209 4.31922 5.89209 5.40048C5.89209 6.48174 6.76862 7.35828 7.84988 7.35828Z" fill="white"/>
<path d="M15.2807 7.35828C16.3619 7.35828 17.2385 6.48174 17.2385 5.40048C17.2385 4.31922 16.3619 3.44269 15.2807 3.44269C14.1994 3.44269 13.3229 4.31922 13.3229 5.40048C13.3229 6.48174 14.1994 7.35828 15.2807 7.35828Z" fill="white"/>
<path d="M22.7121 7.35828C23.7934 7.35828 24.6699 6.48174 24.6699 5.40048C24.6699 4.31922 23.7934 3.44269 22.7121 3.44269C21.6309 3.44269 20.7543 4.31922 20.7543 5.40048C20.7543 6.48174 21.6309 7.35828 22.7121 7.35828Z" fill="white"/>
<path d="M88.7512 33.5862H28.5162V136.488H88.7512V33.5862Z" fill="#E6E6E6"/>
<path d="M149.345 33.5862H99.149V61.911H149.345V33.5862Z" fill="#F4ACB7"/>
<path d="M149.345 69.799H99.149V100.275H149.345V69.799Z" fill="#E6E6E6"/>
<path d="M149.345 108.163H99.149V136.488H149.345V108.163Z" fill="#E6E6E6"/>
<path d="M220.336 33.5862H160.101V78.43H220.336V33.5862Z" fill="#E6E6E6"/>
<path d="M220.336 91.6438H160.101V136.488H220.336V91.6438Z" fill="#E6E6E6"/>
<path d="M197.131 81.6517V71.9974C197.131 68.5664 198.494 65.2759 200.92 62.8498C203.347 60.4237 206.637 59.0607 210.068 59.0607C213.499 59.0607 216.79 60.4237 219.216 62.8498C221.642 65.2759 223.005 68.5664 223.005 71.9974V81.6517C223.004 82.1124 222.821 82.5541 222.495 82.8799C222.169 83.2056 221.728 83.3889 221.267 83.3894H198.869C198.408 83.3889 197.967 83.2056 197.641 82.8799C197.315 82.5541 197.132 82.1124 197.131 81.6517Z" fill="#2F2E41"/>
<path d="M229.197 207.29L224.634 208.553L217.592 191.555L224.327 189.691L229.197 207.29Z" fill="#FFB8B8"/>
<path d="M221.014 208.152L229.814 205.716L231.347 211.257L217.007 215.226C216.806 214.498 216.75 213.738 216.842 212.989C216.934 212.239 217.173 211.516 217.546 210.859C217.918 210.202 218.415 209.625 219.011 209.16C219.606 208.696 220.287 208.353 221.014 208.152Z" fill="#2F2E41"/>
<path d="M181.626 210.8H176.892L174.639 192.539H181.627L181.626 210.8Z" fill="#FFB8B8"/>
<path d="M173.51 209.447H182.641V215.196H167.761C167.761 214.441 167.91 213.694 168.199 212.996C168.488 212.299 168.911 211.665 169.445 211.131C169.979 210.597 170.613 210.174 171.31 209.885C172.008 209.596 172.755 209.447 173.51 209.447Z" fill="#2F2E41"/>
<path d="M175.918 108.745C176.256 109.201 176.689 109.577 177.189 109.848C177.688 110.118 178.24 110.276 178.807 110.309C179.374 110.343 179.941 110.252 180.469 110.043C180.996 109.834 181.472 109.512 181.862 109.099L194.447 114.759L193.302 107.68L181.526 103.39C180.79 102.781 179.855 102.464 178.9 102.498C177.945 102.533 177.035 102.916 176.344 103.576C175.652 104.236 175.227 105.127 175.149 106.079C175.07 107.032 175.344 107.98 175.918 108.745Z" fill="#FFB8B8"/>
<path d="M202.066 151.315C198.112 151.315 194.019 150.726 190.578 148.974C188.752 148.063 187.133 146.784 185.824 145.218C184.514 143.652 183.542 141.833 182.967 139.874C181.175 134.198 183.435 128.621 185.621 123.228C186.975 119.886 188.255 116.73 188.587 113.619L188.703 112.514C189.22 107.553 189.666 103.268 192.138 101.661C193.42 100.828 195.143 100.781 197.406 101.516L218.663 108.421L217.881 148.772L217.752 148.815C217.641 148.852 210.147 151.315 202.066 151.315Z" fill="#2F2E41"/>
<path d="M197.035 88.9535C197.035 88.9535 207.462 85.8642 215.571 87.0227C215.571 87.0227 210.937 112.51 212.482 121.006C214.027 129.501 185.643 124.288 191.436 116.179L193.366 106.524C193.366 106.524 189.505 102.663 192.98 98.0285L197.035 88.9535Z" fill="#F4ACB7"/>
<path d="M191.906 150.55L179.056 148.141L183.542 113.615C183.844 112.651 190.794 90.7753 193.95 89.5917C196.242 88.7846 198.586 88.1335 200.966 87.6428L201.423 87.5513L198.846 91.4164L188.588 115.998L191.906 150.55Z" fill="#2F2E41"/>
<path d="M185.211 206.569L168.608 203.802L177.925 165.755L191.79 113.724L191.927 114.648C191.938 114.717 193.233 121.514 212.452 118.498L212.621 118.471L212.668 118.636L235.896 200.711L216.978 203.865L199.723 143.982L185.211 206.569Z" fill="#2F2E41"/>
<path d="M208.223 157.011L208.233 156.719C208.245 156.395 209.387 124.137 209.006 111.164C208.623 98.1465 212.837 86.8735 212.88 86.7611L212.914 86.6706L213.007 86.6439C218.46 85.0862 223.19 89.7353 223.237 89.7824L223.304 89.8488L221.751 102.66L228.399 149.249L208.223 157.011Z" fill="#2F2E41"/>
<path d="M207.41 83.1646C212.648 83.1646 216.894 78.9182 216.894 73.6799C216.894 68.4416 212.648 64.1952 207.41 64.1952C202.171 64.1952 197.925 68.4416 197.925 73.6799C197.925 78.9182 202.171 83.1646 207.41 83.1646Z" fill="#FFB8B8"/>
<path d="M194.071 72.7698C194.074 70.0566 195.153 67.4555 197.071 65.537C198.99 63.6185 201.591 62.5393 204.304 62.5363H206.235C208.948 62.5393 211.549 63.6185 213.468 65.537C215.386 67.4555 216.465 70.0566 216.469 72.7698V72.9628H212.388L210.996 69.0657L210.718 72.9628H208.609L207.907 70.9965L207.766 72.9628H194.071V72.7698Z" fill="#2F2E41"/>
<path d="M206.476 84.4752C206.285 84.2158 206.17 83.9075 206.146 83.5859C206.122 83.2644 206.189 82.9425 206.34 82.6575C208.386 78.7656 211.251 71.5743 207.449 67.1394L207.175 66.8207H218.215V83.3951L208.186 85.1645C208.085 85.1825 207.982 85.1916 207.879 85.1917C207.605 85.1917 207.335 85.1267 207.091 85.0022C206.847 84.8776 206.637 84.697 206.476 84.4752Z" fill="#2F2E41"/>
<path d="M162.029 16.044C154.304 9.52554 144.851 5.39295 134.82 4.14906C124.79 2.90517 114.613 4.60361 105.53 9.0377C96.4472 13.4718 88.8487 20.4504 83.6595 29.1242C78.4702 37.7981 75.9139 47.7932 76.3016 57.8934C76.6894 67.9936 80.0045 77.7634 85.8435 86.0139C91.6825 94.2644 99.7936 100.64 109.19 104.365C118.586 108.089 128.863 109.002 138.769 106.993C148.675 104.984 157.783 100.139 164.985 93.0473L228.942 147.014C229.915 147.836 231.175 148.239 232.445 148.132C233.715 148.026 234.891 147.42 235.713 146.447C236.536 145.473 236.938 144.213 236.832 142.943C236.726 141.674 236.119 140.498 235.146 139.675L235.139 139.669L171.182 85.703C178.612 75.0397 181.792 61.9861 180.099 49.1005C178.406 36.2148 171.962 24.4259 162.029 16.044ZM157.906 80.5064C152.924 86.4112 146.302 90.706 138.879 92.8476C131.455 94.9892 123.563 94.8815 116.201 92.5379C108.839 90.1944 102.337 85.7204 97.518 79.6816C92.6986 73.6428 89.7781 66.3106 89.1259 58.612C88.4737 50.9135 90.119 43.1944 93.8538 36.4309C97.5886 29.6675 103.245 24.1634 110.108 20.6147C116.971 17.066 124.732 15.6321 132.41 16.4943C140.088 17.3566 147.338 20.4762 153.243 25.4587C157.163 28.767 160.394 32.8151 162.75 37.3719C165.106 41.9287 166.542 46.905 166.975 52.0167C167.408 57.1283 166.83 62.2752 165.274 67.1635C163.718 72.0517 161.214 76.5857 157.906 80.5064Z" fill="#3F3D56"/>
<path opacity="0.3" d="M102.858 85.1699C95.3641 78.8459 90.5224 69.9349 89.2944 60.2063C88.0663 50.4776 90.5418 40.643 96.2293 32.6551C95.4824 33.4073 94.7603 34.1951 94.0631 35.0184C90.7549 38.9391 88.2512 43.473 86.6952 48.3613C85.1391 53.2496 84.5611 58.3965 84.9942 63.5081C85.4272 68.6198 86.8629 73.5961 89.2191 78.1529C91.5753 82.7097 94.806 86.7578 98.7267 90.0661C102.647 93.3744 107.181 95.878 112.07 97.434C116.958 98.9901 122.105 99.5681 127.216 99.135C132.328 98.702 137.304 97.2664 141.861 94.9101C146.418 92.5539 150.466 89.3232 153.774 85.4025C154.47 84.5781 155.125 83.7338 155.74 82.8696C148.822 89.8198 139.544 93.9146 129.748 94.3407C119.951 94.7668 110.353 91.4932 102.858 85.1699Z" fill="#EFF3F1"/>
<path d="M210.455 125.326C211.006 125.461 211.581 125.473 212.137 125.362C212.694 125.251 213.22 125.019 213.677 124.683C214.134 124.346 214.513 123.914 214.785 123.416C215.057 122.918 215.217 122.366 215.253 121.799L228.55 118.108L223.144 113.396L211.346 117.623C210.39 117.626 209.469 117.979 208.756 118.616C208.043 119.253 207.589 120.129 207.479 121.079C207.369 122.028 207.611 122.985 208.16 123.768C208.708 124.551 209.525 125.105 210.455 125.326Z" fill="#FFB8B8"/>
<path d="M215.982 123.372L215.173 115.685L226.28 109.557L219.038 100.791L220.22 90.9437L223.162 89.6826L223.254 89.8003C224.641 91.5844 236.811 107.286 236.811 109.227C236.811 111.221 234.483 117.076 231.297 118.668C228.225 120.204 216.688 123.19 216.199 123.317L215.982 123.372Z" fill="#2F2E41"/>
<path d="M273.614 215.712H126.483C126.381 215.712 126.283 215.671 126.21 215.599C126.138 215.526 126.097 215.428 126.097 215.326C126.097 215.223 126.138 215.125 126.21 215.053C126.283 214.98 126.381 214.94 126.483 214.94H273.614C273.716 214.94 273.815 214.98 273.887 215.053C273.96 215.125 274 215.223 274 215.326C274 215.428 273.96 215.526 273.887 215.599C273.815 215.671 273.716 215.712 273.614 215.712Z" fill="#CCCCCC"/>
</g>
<defs>
<clipPath id="clip0_15_165">
<rect width="274" height="215.712" fill="white"/>
</clipPath>
</defs>
</svg>
