<svg width="292" height="272" viewBox="0 0 292 272" fill="none" xmlns="http://www.w3.org/2000/svg">
<rect x="3.36164" y="3.9531" width="285.867" height="263.423" rx="47.2507" fill="#D8CDD0"/>
<path d="M4.5438 40.5724L4.09564 43.7096C4.00078 44.3736 3.95317 45.0435 3.95317 45.7143V58.5868C3.95317 59.4023 3.29208 60.0633 2.47658 60.0633C1.66109 60.0633 1 59.4023 1 58.5868V53.5664V46.4707C1 45.6899 1.06451 44.9105 1.19287 44.1403L1.59063 41.7537L2.7719 37.0286L4.5438 32.3036L6.90633 26.9879L9.8595 22.2628L12.7989 18.3437C13.2013 17.8071 13.6413 17.2997 14.1156 16.8254L16.9471 13.9939L22.8534 9.26887L27.5785 6.3157L31.908 4.39147C32.5645 4.09969 33.2423 3.85824 33.9354 3.66921L39.3912 2.18127L42.3443 1.59063L49.4319 1H57.1102H61.5399C62.3554 1 63.0165 1.66109 63.0165 2.47658C63.0165 3.29208 62.3554 3.95317 61.5399 3.95317H57.1102H50.0226L42.935 4.5438L39.9818 5.13443L35.2567 6.3157L31.5983 7.68763C30.8883 7.95385 30.2009 8.27659 29.5426 8.65276L26.3972 10.4501L19.9003 15.1752L16.1967 18.4158C15.5173 19.0103 14.8962 19.6684 14.3419 20.381L11.712 23.7624C11.2652 24.3368 10.8633 24.9448 10.5098 25.581L8.0876 29.941L5.72507 35.8474L4.5438 40.5724Z" fill="#9D8189" stroke="#9D8189" stroke-width="1.18127"/>
<path d="M287.457 231.347L287.905 228.21C288 227.546 288.047 226.876 288.047 226.205V213.333C288.047 212.517 288.708 211.856 289.524 211.856C290.339 211.856 291.001 212.517 291.001 213.333V218.353V225.449C291.001 226.23 290.936 227.009 290.808 227.779L290.41 230.166L289.229 234.891L287.457 239.616L285.094 244.932L282.141 249.657L279.202 253.576C278.799 254.112 278.359 254.62 277.885 255.094L275.053 257.925L269.147 262.651L264.422 265.604L260.092 267.528C259.436 267.82 258.758 268.061 258.065 268.25L252.609 269.738L249.656 270.329L242.569 270.919H234.89H230.461C229.645 270.919 228.984 270.258 228.984 269.443C228.984 268.627 229.645 267.966 230.461 267.966H234.89H241.978L249.066 267.376L252.019 266.785L256.744 265.604L260.402 264.232C261.112 263.966 261.8 263.643 262.458 263.267L265.603 261.469L272.1 256.744L275.804 253.504C276.483 252.909 277.104 252.251 277.659 251.538L280.289 248.157C280.735 247.583 281.137 246.975 281.491 246.338L283.913 241.978L286.275 236.072L287.457 231.347Z" fill="#9D8189" stroke="#9D8189" stroke-width="1.18127"/>
</svg>
