<svg width="615" height="448" viewBox="0 0 615 448" fill="none" xmlns="http://www.w3.org/2000/svg">
<g clip-path="url(#clip0_560_8091)">
<path d="M558.317 0.292725H0.238281V331.009H558.317V0.292725Z" fill="#E6E6E6"/>
<path d="M542.359 41.7728H16.1963V311.444H542.359V41.7728Z" fill="white"/>
<path d="M558.078 0H0V21.938H558.078V0Z" fill="#624549"/>
<path d="M17.6189 15.2818C20.0458 15.2818 22.0133 13.4614 22.0133 11.2158C22.0133 8.97021 20.0458 7.14978 17.6189 7.14978C15.192 7.14978 13.2246 8.97021 13.2246 11.2158C13.2246 13.4614 15.192 15.2818 17.6189 15.2818Z" fill="white"/>
<path d="M34.2986 15.2818C36.7255 15.2818 38.6929 13.4614 38.6929 11.2158C38.6929 8.97021 36.7255 7.14978 34.2986 7.14978C31.8717 7.14978 29.9043 8.97021 29.9043 11.2158C29.9043 13.4614 31.8717 15.2818 34.2986 15.2818Z" fill="white"/>
<path d="M50.9783 15.2818C53.4052 15.2818 55.3726 13.4614 55.3726 11.2158C55.3726 8.97021 53.4052 7.14978 50.9783 7.14978C48.5514 7.14978 46.584 8.97021 46.584 11.2158C46.584 13.4614 48.5514 15.2818 50.9783 15.2818Z" fill="white"/>
<path d="M199.204 69.7534H64.0054V283.463H199.204V69.7534Z" fill="#E6E6E6"/>
<path d="M335.208 69.7534H222.542V128.58H335.208V69.7534Z" fill="#624549"/>
<path d="M335.208 144.961H222.542V208.255H335.208V144.961Z" fill="#E6E6E6"/>
<path d="M335.208 224.637H222.542V283.463H335.208V224.637Z" fill="#E6E6E6"/>
<path d="M494.549 69.7534H359.351V162.887H494.549V69.7534Z" fill="#E6E6E6"/>
<path d="M494.549 190.33H359.351V283.464H494.549V190.33Z" fill="#E6E6E6"/>
<path d="M442.466 169.578V149.527C442.466 142.402 445.526 135.568 450.971 130.529C456.416 125.491 463.802 122.66 471.503 122.66C479.204 122.66 486.59 125.491 492.035 130.529C497.481 135.568 500.54 142.402 500.54 149.527V169.578C500.539 170.535 500.127 171.452 499.396 172.129C498.665 172.805 497.673 173.186 496.639 173.187H446.367C445.333 173.186 444.341 172.805 443.61 172.129C442.879 171.452 442.467 170.535 442.466 169.578Z" fill="#828884"/>
<path d="M514.439 430.51L504.197 433.132L488.391 397.829L503.506 393.959L514.439 430.51Z" fill="#FFB8B8"/>
<path d="M496.072 432.298L515.824 427.241L519.265 438.747L487.078 446.99C486.626 445.479 486.5 443.9 486.707 442.344C486.915 440.788 487.451 439.285 488.287 437.921C489.122 436.556 490.239 435.358 491.575 434.393C492.911 433.428 494.439 432.717 496.072 432.298Z" fill="#828884"/>
<path d="M407.665 437.799H397.039L391.983 399.874H407.667L407.665 437.799Z" fill="#FFB8B8"/>
<path d="M389.448 434.99H409.942V446.929H376.544C376.544 445.361 376.878 443.809 377.527 442.36C378.175 440.911 379.126 439.595 380.324 438.487C381.522 437.378 382.944 436.498 384.51 435.898C386.075 435.298 387.753 434.99 389.448 434.99Z" fill="#828884"/>
<path d="M394.851 225.845C395.61 226.793 396.584 227.575 397.704 228.136C398.824 228.698 400.064 229.025 401.336 229.095C402.608 229.165 403.881 228.977 405.066 228.542C406.251 228.108 407.318 227.439 408.193 226.581L436.441 238.337L433.871 223.635L407.44 214.725C405.786 213.461 403.689 212.802 401.545 212.873C399.401 212.944 397.36 213.741 395.808 215.112C394.256 216.482 393.302 218.332 393.125 220.31C392.949 222.289 393.563 224.258 394.851 225.845Z" fill="#FFB8B8"/>
<path d="M453.544 314.258C444.669 314.258 435.481 313.035 427.758 309.397C423.659 307.503 420.026 304.847 417.086 301.595C414.147 298.343 411.964 294.565 410.675 290.497C406.652 278.708 411.725 267.126 416.631 255.926C419.672 248.985 422.543 242.43 423.288 235.969L423.549 233.675C424.709 223.371 425.711 214.472 431.26 211.134C434.136 209.404 438.003 209.305 443.083 210.832L490.795 225.173L489.04 308.975L488.75 309.065C488.501 309.143 471.681 314.258 453.544 314.258Z" fill="#828884"/>
<path d="M442.25 184.742C442.25 184.742 465.652 178.326 483.854 180.732C483.854 180.732 473.453 233.665 476.92 251.31C480.387 268.954 416.68 258.127 429.682 241.284L434.015 221.234C434.015 221.234 425.348 213.214 433.149 203.59L442.25 184.742Z" fill="#624549"/>
<path d="M430.739 312.669L401.896 307.665L411.966 235.96C412.643 233.958 428.242 188.526 435.327 186.068C440.471 184.392 445.731 183.04 451.073 182.02L452.099 181.831L446.315 189.858L423.29 240.909L430.739 312.669Z" fill="#828884"/>
<path d="M415.71 429.012L378.443 423.265L399.357 344.248L430.477 236.187L430.784 238.105C430.808 238.248 433.715 252.365 476.853 246.101L477.232 246.046L477.337 246.388L529.475 416.846L487.012 423.395L448.282 299.029L415.71 429.012Z" fill="#828884"/>
<path d="M467.363 326.088L467.386 325.481C467.412 324.808 469.976 257.813 469.12 230.87C468.26 203.835 477.72 180.423 477.815 180.189L477.892 180.001L478.101 179.946C490.34 176.711 500.957 186.366 501.063 186.464L501.212 186.602L497.727 213.21L512.649 309.966L467.363 326.088Z" fill="#828884"/>
<path d="M465.536 172.72C477.294 172.72 486.825 163.901 486.825 153.022C486.825 142.143 477.294 133.324 465.536 133.324C453.779 133.324 444.248 142.143 444.248 153.022C444.248 163.901 453.779 172.72 465.536 172.72Z" fill="#FFB8B8"/>
<path d="M435.597 151.132C435.604 145.497 438.026 140.095 442.332 136.11C446.638 132.126 452.476 129.885 458.566 129.878H462.9C468.99 129.885 474.828 132.126 479.134 136.11C483.44 140.095 485.862 145.497 485.869 151.132V151.533H476.71L473.587 143.439L472.962 151.533H468.228L466.652 147.449L466.337 151.533H435.597V151.132Z" fill="#828884"/>
<path d="M463.441 175.442C463.011 174.903 462.754 174.263 462.7 173.595C462.646 172.927 462.797 172.259 463.136 171.667C467.728 163.584 474.159 148.649 465.623 139.438L465.01 138.776H489.789V173.198L467.279 176.873C467.051 176.911 466.82 176.929 466.589 176.93C465.974 176.93 465.369 176.795 464.821 176.536C464.274 176.277 463.801 175.902 463.441 175.442Z" fill="#828884"/>
<path d="M363.678 33.3207C346.339 19.783 325.122 11.2003 302.607 8.6169C280.093 6.03354 257.252 9.56093 236.865 18.7699C216.478 27.9788 199.423 42.4722 187.775 60.4864C176.128 78.5007 170.39 99.259 171.26 120.236C172.131 141.212 179.572 161.502 192.677 178.637C205.783 195.772 223.989 209.013 245.079 216.749C266.17 224.484 289.235 226.381 311.469 222.208C333.703 218.035 354.147 207.972 370.313 193.245L513.866 305.324C516.05 307.033 518.878 307.869 521.729 307.648C524.579 307.427 527.217 306.167 529.064 304.146C530.911 302.125 531.814 299.508 531.575 296.871C531.337 294.234 529.975 291.792 527.791 290.084L527.775 290.071L384.223 177.992C400.899 155.846 408.036 128.735 404.236 101.974C400.436 75.2124 385.972 50.7287 363.678 33.3207ZM354.424 167.199C343.241 179.463 328.378 188.382 311.716 192.83C295.054 197.278 277.341 197.054 260.816 192.187C244.292 187.32 229.698 178.028 218.881 165.486C208.064 152.945 201.509 137.717 200.045 121.728C198.581 105.739 202.274 89.7079 210.657 75.6613C219.04 61.6146 231.736 50.1835 247.14 42.8134C262.544 35.4434 279.964 32.4654 297.197 34.2561C314.43 36.0468 330.703 42.5258 343.956 52.8737C352.756 59.7444 360.008 68.1517 365.296 77.6155C370.585 87.0793 373.807 97.4143 374.779 108.03C375.751 118.647 374.454 129.336 370.961 139.488C367.469 149.64 361.849 159.056 354.424 167.199Z" fill="#3F3D56"/>
<path opacity="0.3" d="M230.868 176.885C214.048 163.751 203.18 145.244 200.424 125.039C197.668 104.834 203.224 84.4092 215.989 67.8196C214.313 69.3818 212.692 71.0179 211.127 72.7278C203.702 80.8705 198.082 90.2867 194.59 100.439C191.097 110.591 189.8 121.28 190.772 131.896C191.744 142.513 194.966 152.848 200.255 162.311C205.544 171.775 212.795 180.183 221.595 187.053C230.395 193.924 240.572 199.124 251.543 202.355C262.515 205.587 274.068 206.787 285.541 205.888C297.014 204.989 308.184 202.007 318.411 197.114C328.639 192.22 337.725 185.51 345.151 177.368C346.712 175.656 348.183 173.902 349.562 172.107C334.036 186.542 313.211 195.046 291.223 195.931C269.234 196.816 247.69 190.017 230.868 176.885Z" fill="black"/>
<path d="M472.371 260.282C473.609 260.562 474.898 260.588 476.148 260.357C477.397 260.126 478.577 259.645 479.603 258.946C480.63 258.248 481.479 257.35 482.09 256.315C482.701 255.281 483.059 254.135 483.14 252.958L512.985 245.293L500.853 235.505L474.371 244.285C472.226 244.291 470.158 245.025 468.558 246.347C466.958 247.67 465.938 249.49 465.692 251.462C465.445 253.433 465.989 255.421 467.22 257.046C468.451 258.672 470.284 259.823 472.371 260.282Z" fill="#FFB8B8"/>
<path d="M484.776 256.225L482.96 240.26L507.89 227.533L491.636 209.327L494.288 188.876L500.893 186.257L501.099 186.501C504.213 190.207 531.527 222.817 531.527 226.848C531.527 230.989 526.301 243.148 519.152 246.455C512.256 249.646 486.362 255.846 485.263 256.109L484.776 256.225Z" fill="#828884"/>
<path d="M614.133 448H283.895C283.665 448 283.444 447.916 283.282 447.765C283.119 447.615 283.028 447.411 283.028 447.198C283.028 446.985 283.119 446.781 283.282 446.631C283.444 446.48 283.665 446.396 283.895 446.396H614.133C614.363 446.396 614.583 446.48 614.746 446.631C614.909 446.781 615 446.985 615 447.198C615 447.411 614.909 447.615 614.746 447.765C614.583 447.916 614.363 448 614.133 448Z" fill="#CCCCCC"/>
</g>
<defs>
<clipPath id="clip0_560_8091">
<rect width="615" height="448" fill="white"/>
</clipPath>
</defs>
</svg>
