<svg width="167" height="48" viewBox="0 0 167 48" fill="none" xmlns="http://www.w3.org/2000/svg">
<path d="M63.4375 19.5V4.95455H69.7159C70.7955 4.95455 71.7401 5.15104 72.5497 5.54403C73.3594 5.93703 73.9891 6.50284 74.4389 7.24148C74.8887 7.98011 75.1136 8.86553 75.1136 9.89773C75.1136 10.9394 74.8816 11.8177 74.4176 12.5327C73.9583 13.2476 73.312 13.7874 72.4787 14.152C71.6501 14.5166 70.6818 14.6989 69.5739 14.6989H65.8239V11.6307H68.7784C69.2424 11.6307 69.6378 11.5739 69.9645 11.4602C70.2959 11.3419 70.5492 11.1548 70.7244 10.8991C70.9044 10.6435 70.9943 10.3097 70.9943 9.89773C70.9943 9.48106 70.9044 9.14252 70.7244 8.8821C70.5492 8.61695 70.2959 8.42282 69.9645 8.29972C69.6378 8.17187 69.2424 8.10795 68.7784 8.10795H67.3864V19.5H63.4375ZM71.9602 12.8239L75.5966 19.5H71.3068L67.7557 12.8239H71.9602ZM76.8253 19.5V16.6591L82.2514 12.1705C82.6113 11.8722 82.919 11.5928 83.1747 11.3324C83.4351 11.0672 83.634 10.795 83.7713 10.5156C83.9134 10.2363 83.9844 9.92614 83.9844 9.58523C83.9844 9.21117 83.9039 8.89157 83.7429 8.62642C83.5866 8.36127 83.3688 8.15767 83.0895 8.01562C82.8101 7.86884 82.4882 7.79545 82.1236 7.79545C81.759 7.79545 81.437 7.86884 81.1577 8.01562C80.883 8.16241 80.67 8.37784 80.5185 8.66193C80.367 8.94602 80.2912 9.29167 80.2912 9.69886H76.5412C76.5412 8.67614 76.7708 7.79545 77.2301 7.05682C77.6894 6.31818 78.3381 5.75 79.1761 5.35227C80.0142 4.95455 80.9967 4.75568 82.1236 4.75568C83.2884 4.75568 84.2969 4.94271 85.1491 5.31676C86.0062 5.68608 86.6667 6.20691 87.1307 6.87926C87.5994 7.55161 87.8338 8.33996 87.8338 9.24432C87.8338 9.80303 87.7178 10.3594 87.4858 10.9134C87.2538 11.4626 86.8371 12.071 86.2358 12.7386C85.6345 13.4062 84.7798 14.2017 83.6719 15.125L82.3082 16.2614V16.3466H87.9901V19.5H76.8253ZM103.306 10.4091H99.3004C99.272 10.0777 99.1963 9.77699 99.0732 9.5071C98.9548 9.23722 98.7891 9.00521 98.576 8.81108C98.3677 8.61222 98.1143 8.4607 97.8161 8.35653C97.5178 8.24763 97.1792 8.19318 96.8004 8.19318C96.1375 8.19318 95.5765 8.35417 95.1172 8.67614C94.6626 8.99811 94.317 9.45975 94.0803 10.0611C93.8482 10.6624 93.7322 11.3845 93.7322 12.2273C93.7322 13.1174 93.8506 13.8632 94.0874 14.4645C94.3288 15.0611 94.6768 15.5109 95.1314 15.8139C95.5859 16.1122 96.1328 16.2614 96.772 16.2614C97.1366 16.2614 97.4633 16.2164 97.7521 16.1264C98.041 16.0317 98.2919 15.8968 98.505 15.7216C98.718 15.5464 98.8909 15.3357 99.0234 15.0895C99.1607 14.8385 99.2531 14.5568 99.3004 14.2443L103.306 14.2727C103.259 14.8883 103.086 15.5156 102.788 16.1548C102.489 16.7893 102.066 17.3764 101.516 17.9162C100.972 18.4512 100.297 18.8821 99.4922 19.2088C98.6873 19.5355 97.7521 19.6989 96.6868 19.6989C95.3516 19.6989 94.1536 19.4124 93.093 18.8395C92.0372 18.2666 91.2015 17.4238 90.5859 16.3111C89.9751 15.1984 89.6697 13.8371 89.6697 12.2273C89.6697 10.608 89.9822 9.24432 90.6072 8.13636C91.2322 7.02367 92.075 6.18324 93.1357 5.61506C94.1963 5.04214 95.38 4.75568 96.6868 4.75568C97.6054 4.75568 98.4505 4.88115 99.2223 5.1321C99.9941 5.38305 100.671 5.75 101.254 6.23295C101.836 6.71117 102.305 7.30066 102.66 8.00142C103.015 8.70218 103.23 9.50473 103.306 10.4091Z" fill="#EFF3F1"/>
<path d="M1.14773 43.5V31.8636H5.51136C6.4053 31.8636 7.1553 32.0189 7.76136 32.3295C8.37121 32.6402 8.83144 33.0758 9.14205 33.6364C9.45644 34.1932 9.61364 34.8428 9.61364 35.5852C9.61364 36.3314 9.45455 36.9792 9.13636 37.5284C8.82197 38.0739 8.35795 38.4962 7.74432 38.7955C7.13068 39.0909 6.37689 39.2386 5.48295 39.2386H2.375V37.4886H5.19886C5.72159 37.4886 6.14962 37.4167 6.48295 37.2727C6.81629 37.125 7.0625 36.911 7.22159 36.6307C7.38447 36.3466 7.46591 35.9981 7.46591 35.5852C7.46591 35.1723 7.38447 34.8201 7.22159 34.5284C7.05871 34.233 6.81061 34.0095 6.47727 33.858C6.14394 33.7027 5.71402 33.625 5.1875 33.625H3.25568V43.5H1.14773ZM7.15909 38.2273L10.0398 43.5H7.6875L4.85795 38.2273H7.15909ZM15.2017 43.6705C14.3267 43.6705 13.571 43.4886 12.9347 43.125C12.3021 42.7576 11.8153 42.2386 11.4744 41.5682C11.1335 40.8939 10.9631 40.1004 10.9631 39.1875C10.9631 38.2898 11.1335 37.5019 11.4744 36.8239C11.8191 36.142 12.3002 35.6117 12.9176 35.233C13.535 34.8504 14.2604 34.6591 15.0938 34.6591C15.6316 34.6591 16.1392 34.7462 16.6165 34.9205C17.0975 35.0909 17.5218 35.3561 17.8892 35.7159C18.2604 36.0758 18.5521 36.5341 18.7642 37.0909C18.9763 37.6439 19.0824 38.303 19.0824 39.0682V39.6989H11.929V38.3125H17.1108C17.107 37.9186 17.0218 37.5682 16.8551 37.2614C16.6884 36.9508 16.4555 36.7064 16.1562 36.5284C15.8608 36.3504 15.5161 36.2614 15.1222 36.2614C14.7017 36.2614 14.3324 36.3636 14.0142 36.5682C13.696 36.7689 13.4479 37.0341 13.2699 37.3636C13.0956 37.6894 13.0066 38.0473 13.0028 38.4375V39.6477C13.0028 40.1553 13.0956 40.5909 13.2812 40.9545C13.4669 41.3144 13.7263 41.5909 14.0597 41.7841C14.393 41.9735 14.7831 42.0682 15.2301 42.0682C15.5294 42.0682 15.8002 42.0265 16.0426 41.9432C16.285 41.8561 16.4953 41.7292 16.6733 41.5625C16.8513 41.3958 16.9858 41.1894 17.0767 40.9432L18.9972 41.1591C18.8759 41.6667 18.6449 42.1098 18.304 42.4886C17.9669 42.8636 17.535 43.1553 17.0085 43.3636C16.482 43.5682 15.8797 43.6705 15.2017 43.6705ZM24.6293 43.6705C23.758 43.6705 23.0099 43.4792 22.3849 43.0966C21.7637 42.714 21.2846 42.1856 20.9474 41.5114C20.6141 40.8333 20.4474 40.053 20.4474 39.1705C20.4474 38.2841 20.6179 37.5019 20.9588 36.8239C21.2997 36.142 21.7808 35.6117 22.402 35.233C23.027 34.8504 23.7656 34.6591 24.6179 34.6591C25.3262 34.6591 25.9531 34.7898 26.4986 35.0511C27.0478 35.3087 27.4853 35.6742 27.8111 36.1477C28.1368 36.6174 28.3224 37.1667 28.3679 37.7955H26.402C26.3224 37.375 26.133 37.0246 25.8338 36.7443C25.5384 36.4602 25.1425 36.3182 24.6463 36.3182C24.2259 36.3182 23.8565 36.4318 23.5384 36.6591C23.2202 36.8826 22.9721 37.2045 22.794 37.625C22.6198 38.0455 22.5327 38.5492 22.5327 39.1364C22.5327 39.7311 22.6198 40.2424 22.794 40.6705C22.9683 41.0947 23.2126 41.4223 23.527 41.6534C23.8452 41.8807 24.2183 41.9943 24.6463 41.9943C24.9493 41.9943 25.2202 41.9375 25.4588 41.8239C25.7012 41.7064 25.9039 41.5379 26.0668 41.3182C26.2296 41.0985 26.3414 40.8314 26.402 40.517H28.3679C28.3187 41.1345 28.1368 41.6818 27.8224 42.1591C27.508 42.6326 27.08 43.0038 26.5384 43.2727C25.9967 43.5379 25.3603 43.6705 24.6293 43.6705ZM30.0568 43.5V34.7727H32.0511V36.2273H32.142C32.3011 35.7235 32.5739 35.3352 32.9602 35.0625C33.3504 34.786 33.7955 34.6477 34.2955 34.6477C34.4091 34.6477 34.536 34.6534 34.6761 34.6648C34.8201 34.6723 34.9394 34.6856 35.0341 34.7045V36.5966C34.947 36.5663 34.8087 36.5398 34.6193 36.517C34.4337 36.4905 34.2538 36.4773 34.0795 36.4773C33.7045 36.4773 33.3674 36.5587 33.0682 36.7216C32.7727 36.8807 32.5398 37.1023 32.3693 37.3864C32.1989 37.6705 32.1136 37.9981 32.1136 38.3693V43.5H30.0568ZM41.9631 39.8295V34.7727H44.0199V43.5H42.0256V41.9489H41.9347C41.7377 42.4375 41.4138 42.8371 40.9631 43.1477C40.5161 43.4583 39.965 43.6136 39.3097 43.6136C38.7377 43.6136 38.232 43.4867 37.7926 43.233C37.357 42.9754 37.0161 42.6023 36.7699 42.1136C36.5237 41.6212 36.4006 41.0265 36.4006 40.3295V34.7727H38.4574V40.0114C38.4574 40.5644 38.6089 41.0038 38.9119 41.3295C39.215 41.6553 39.6127 41.8182 40.1051 41.8182C40.4081 41.8182 40.7017 41.7443 40.9858 41.5966C41.2699 41.4489 41.5028 41.2292 41.6847 40.9375C41.8703 40.642 41.9631 40.2727 41.9631 39.8295ZM46.1349 43.5V34.7727H48.1918V43.5H46.1349ZM47.169 33.5341C46.8433 33.5341 46.563 33.4261 46.3281 33.2102C46.0933 32.9905 45.9759 32.7273 45.9759 32.4205C45.9759 32.1098 46.0933 31.8466 46.3281 31.6307C46.563 31.411 46.8433 31.3011 47.169 31.3011C47.4986 31.3011 47.7789 31.411 48.0099 31.6307C48.2448 31.8466 48.3622 32.1098 48.3622 32.4205C48.3622 32.7273 48.2448 32.9905 48.0099 33.2102C47.7789 33.4261 47.4986 33.5341 47.169 33.5341ZM54.6648 34.7727V36.3636H49.6477V34.7727H54.6648ZM50.8864 32.6818H52.9432V40.875C52.9432 41.1515 52.9848 41.3636 53.0682 41.5114C53.1553 41.6553 53.2689 41.7538 53.4091 41.8068C53.5492 41.8598 53.7045 41.8864 53.875 41.8864C54.0038 41.8864 54.1212 41.8769 54.2273 41.858C54.3371 41.839 54.4205 41.822 54.4773 41.8068L54.8239 43.4148C54.714 43.4527 54.5568 43.4943 54.3523 43.5398C54.1515 43.5852 53.9053 43.6117 53.6136 43.6193C53.0985 43.6345 52.6345 43.5568 52.2216 43.3864C51.8087 43.2121 51.4811 42.9432 51.2386 42.5795C51 42.2159 50.8826 41.7614 50.8864 41.2159V32.6818ZM60.1548 43.6705C59.2798 43.6705 58.5241 43.4886 57.8878 43.125C57.2552 42.7576 56.7685 42.2386 56.4276 41.5682C56.0866 40.8939 55.9162 40.1004 55.9162 39.1875C55.9162 38.2898 56.0866 37.5019 56.4276 36.8239C56.7723 36.142 57.2533 35.6117 57.8707 35.233C58.4882 34.8504 59.2135 34.6591 60.0469 34.6591C60.5848 34.6591 61.0923 34.7462 61.5696 34.9205C62.0507 35.0909 62.4749 35.3561 62.8423 35.7159C63.2135 36.0758 63.5052 36.5341 63.7173 37.0909C63.9295 37.6439 64.0355 38.303 64.0355 39.0682V39.6989H56.8821V38.3125H62.0639C62.0601 37.9186 61.9749 37.5682 61.8082 37.2614C61.6416 36.9508 61.4086 36.7064 61.1094 36.5284C60.8139 36.3504 60.4692 36.2614 60.0753 36.2614C59.6548 36.2614 59.2855 36.3636 58.9673 36.5682C58.6491 36.7689 58.401 37.0341 58.223 37.3636C58.0488 37.6894 57.9598 38.0473 57.956 38.4375V39.6477C57.956 40.1553 58.0488 40.5909 58.2344 40.9545C58.42 41.3144 58.6795 41.5909 59.0128 41.7841C59.3461 41.9735 59.7363 42.0682 60.1832 42.0682C60.4825 42.0682 60.7533 42.0265 60.9957 41.9432C61.2382 41.8561 61.4484 41.7292 61.6264 41.5625C61.8045 41.3958 61.9389 41.1894 62.0298 40.9432L63.9503 41.1591C63.8291 41.6667 63.598 42.1098 63.2571 42.4886C62.92 42.8636 62.4882 43.1553 61.9616 43.3636C61.4351 43.5682 60.8329 43.6705 60.1548 43.6705ZM65.7756 43.5V34.7727H67.7699V36.2273H67.8608C68.0199 35.7235 68.2926 35.3352 68.679 35.0625C69.0691 34.786 69.5142 34.6477 70.0142 34.6477C70.1278 34.6477 70.2547 34.6534 70.3949 34.6648C70.5388 34.6723 70.6581 34.6856 70.7528 34.7045V36.5966C70.6657 36.5663 70.5275 36.5398 70.3381 36.517C70.1525 36.4905 69.9725 36.4773 69.7983 36.4773C69.4233 36.4773 69.0862 36.5587 68.7869 36.7216C68.4915 36.8807 68.2585 37.1023 68.0881 37.3864C67.9176 37.6705 67.8324 37.9981 67.8324 38.3693V43.5H65.7756ZM76.0653 43.5V41.9773L80.1051 38.017C80.4915 37.6269 80.8134 37.2803 81.071 36.9773C81.3286 36.6742 81.5218 36.3807 81.6506 36.0966C81.7794 35.8125 81.8438 35.5095 81.8438 35.1875C81.8438 34.8201 81.7604 34.5057 81.5938 34.2443C81.4271 33.9792 81.1979 33.7746 80.9062 33.6307C80.6146 33.4867 80.2831 33.4148 79.9119 33.4148C79.5294 33.4148 79.1941 33.4943 78.9062 33.6534C78.6184 33.8087 78.3949 34.0303 78.2358 34.3182C78.0805 34.6061 78.0028 34.9489 78.0028 35.3466H75.9972C75.9972 34.608 76.1657 33.9659 76.5028 33.4205C76.84 32.875 77.304 32.4527 77.8949 32.1534C78.4896 31.8542 79.1714 31.7045 79.9403 31.7045C80.7206 31.7045 81.4063 31.8504 81.9972 32.142C82.5881 32.4337 83.0464 32.8333 83.3722 33.3409C83.7017 33.8485 83.8665 34.428 83.8665 35.0795C83.8665 35.5152 83.7831 35.9432 83.6165 36.3636C83.4498 36.7841 83.1563 37.25 82.7358 37.7614C82.3191 38.2727 81.7339 38.892 80.9801 39.6193L78.9744 41.6591V41.7386H84.0426V43.5H76.0653ZM93.8011 43.6705C92.9299 43.6705 92.1818 43.4792 91.5568 43.0966C90.9356 42.714 90.4564 42.1856 90.1193 41.5114C89.786 40.8333 89.6193 40.053 89.6193 39.1705C89.6193 38.2841 89.7898 37.5019 90.1307 36.8239C90.4716 36.142 90.9527 35.6117 91.5739 35.233C92.1989 34.8504 92.9375 34.6591 93.7898 34.6591C94.4981 34.6591 95.125 34.7898 95.6705 35.0511C96.2197 35.3087 96.6572 35.6742 96.983 36.1477C97.3087 36.6174 97.4943 37.1667 97.5398 37.7955H95.5739C95.4943 37.375 95.3049 37.0246 95.0057 36.7443C94.7102 36.4602 94.3144 36.3182 93.8182 36.3182C93.3977 36.3182 93.0284 36.4318 92.7102 36.6591C92.392 36.8826 92.1439 37.2045 91.9659 37.625C91.7917 38.0455 91.7045 38.5492 91.7045 39.1364C91.7045 39.7311 91.7917 40.2424 91.9659 40.6705C92.1402 41.0947 92.3845 41.4223 92.6989 41.6534C93.017 41.8807 93.3902 41.9943 93.8182 41.9943C94.1212 41.9943 94.392 41.9375 94.6307 41.8239C94.8731 41.7064 95.0758 41.5379 95.2386 41.3182C95.4015 41.0985 95.5133 40.8314 95.5739 40.517H97.5398C97.4905 41.1345 97.3087 41.6818 96.9943 42.1591C96.6799 42.6326 96.2519 43.0038 95.7102 43.2727C95.1686 43.5379 94.5322 43.6705 93.8011 43.6705ZM101.74 43.6761C101.187 43.6761 100.689 43.5777 100.246 43.3807C99.8063 43.1799 99.4579 42.8845 99.2003 42.4943C98.9465 42.1042 98.8196 41.6231 98.8196 41.0511C98.8196 40.5587 98.9105 40.1515 99.0923 39.8295C99.2741 39.5076 99.5223 39.25 99.8366 39.0568C100.151 38.8636 100.505 38.7178 100.899 38.6193C101.297 38.517 101.708 38.4432 102.132 38.3977C102.643 38.3447 103.058 38.2973 103.376 38.2557C103.695 38.2102 103.926 38.142 104.07 38.0511C104.217 37.9564 104.291 37.8106 104.291 37.6136V37.5795C104.291 37.1515 104.164 36.8201 103.911 36.5852C103.657 36.3504 103.291 36.233 102.814 36.233C102.31 36.233 101.911 36.3428 101.615 36.5625C101.323 36.7822 101.126 37.0417 101.024 37.3409L99.1037 37.0682C99.2552 36.5379 99.5052 36.0947 99.8537 35.7386C100.202 35.3788 100.628 35.1098 101.132 34.9318C101.636 34.75 102.193 34.6591 102.803 34.6591C103.223 34.6591 103.642 34.7083 104.058 34.8068C104.475 34.9053 104.856 35.0682 105.2 35.2955C105.545 35.5189 105.821 35.8239 106.03 36.2102C106.242 36.5966 106.348 37.0795 106.348 37.6591V43.5H104.371V42.3011H104.303C104.178 42.5436 104.001 42.7708 103.774 42.983C103.551 43.1913 103.268 43.3598 102.928 43.4886C102.59 43.6136 102.195 43.6761 101.74 43.6761ZM102.274 42.1648C102.687 42.1648 103.045 42.0833 103.348 41.9205C103.651 41.7538 103.884 41.5341 104.047 41.2614C104.214 40.9886 104.297 40.6913 104.297 40.3693V39.3409C104.232 39.3939 104.123 39.4432 103.967 39.4886C103.816 39.5341 103.645 39.5739 103.456 39.608C103.267 39.642 103.079 39.6723 102.893 39.6989C102.708 39.7254 102.547 39.7481 102.411 39.767C102.104 39.8087 101.829 39.8769 101.587 39.9716C101.344 40.0663 101.153 40.1989 101.013 40.3693C100.873 40.536 100.803 40.7519 100.803 41.017C100.803 41.3958 100.941 41.6818 101.217 41.875C101.494 42.0682 101.846 42.1648 102.274 42.1648ZM110.473 38.3864V43.5H108.416V34.7727H110.382V36.2557H110.484C110.685 35.767 111.005 35.3788 111.445 35.0909C111.888 34.803 112.435 34.6591 113.087 34.6591C113.689 34.6591 114.214 34.7879 114.661 35.0455C115.111 35.303 115.46 35.6761 115.706 36.1648C115.956 36.6534 116.079 37.2462 116.075 37.9432V43.5H114.018V38.2614C114.018 37.678 113.867 37.2216 113.564 36.892C113.265 36.5625 112.85 36.3977 112.32 36.3977C111.96 36.3977 111.64 36.4773 111.359 36.6364C111.083 36.7917 110.865 37.017 110.706 37.3125C110.551 37.608 110.473 37.9659 110.473 38.3864ZM121.405 43.6534C120.719 43.6534 120.106 43.4773 119.564 43.125C119.022 42.7727 118.594 42.2614 118.28 41.5909C117.965 40.9205 117.808 40.1061 117.808 39.1477C117.808 38.178 117.967 37.3598 118.286 36.6932C118.607 36.0227 119.041 35.517 119.587 35.1761C120.132 34.8314 120.74 34.6591 121.411 34.6591C121.922 34.6591 122.342 34.7462 122.672 34.9205C123.001 35.0909 123.263 35.2973 123.456 35.5398C123.649 35.7784 123.799 36.0038 123.905 36.2159H123.99V31.8636H126.053V43.5H124.03V42.125H123.905C123.799 42.3371 123.645 42.5625 123.445 42.8011C123.244 43.036 122.979 43.2367 122.649 43.4034C122.32 43.5701 121.905 43.6534 121.405 43.6534ZM121.979 41.9659C122.414 41.9659 122.786 41.8485 123.092 41.6136C123.399 41.375 123.632 41.0436 123.791 40.6193C123.95 40.1951 124.03 39.7008 124.03 39.1364C124.03 38.572 123.95 38.0814 123.791 37.6648C123.636 37.2481 123.405 36.9242 123.098 36.6932C122.795 36.4621 122.422 36.3466 121.979 36.3466C121.52 36.3466 121.138 36.4659 120.831 36.7045C120.524 36.9432 120.293 37.2727 120.138 37.6932C119.982 38.1136 119.905 38.5947 119.905 39.1364C119.905 39.6818 119.982 40.1686 120.138 40.5966C120.297 41.0208 120.53 41.3561 120.837 41.6023C121.147 41.8447 121.528 41.9659 121.979 41.9659ZM128.244 43.5V34.7727H130.301V43.5H128.244ZM129.278 33.5341C128.953 33.5341 128.672 33.4261 128.438 33.2102C128.203 32.9905 128.085 32.7273 128.085 32.4205C128.085 32.1098 128.203 31.8466 128.438 31.6307C128.672 31.411 128.953 31.3011 129.278 31.3011C129.608 31.3011 129.888 31.411 130.119 31.6307C130.354 31.8466 130.472 32.1098 130.472 32.4205C130.472 32.7273 130.354 32.9905 130.119 33.2102C129.888 33.4261 129.608 33.5341 129.278 33.5341ZM135.655 43.6534C134.969 43.6534 134.356 43.4773 133.814 43.125C133.272 42.7727 132.844 42.2614 132.53 41.5909C132.215 40.9205 132.058 40.1061 132.058 39.1477C132.058 38.178 132.217 37.3598 132.536 36.6932C132.857 36.0227 133.291 35.517 133.837 35.1761C134.382 34.8314 134.99 34.6591 135.661 34.6591C136.172 34.6591 136.592 34.7462 136.922 34.9205C137.251 35.0909 137.513 35.2973 137.706 35.5398C137.899 35.7784 138.049 36.0038 138.155 36.2159H138.24V31.8636H140.303V43.5H138.28V42.125H138.155C138.049 42.3371 137.895 42.5625 137.695 42.8011C137.494 43.036 137.229 43.2367 136.899 43.4034C136.57 43.5701 136.155 43.6534 135.655 43.6534ZM136.229 41.9659C136.664 41.9659 137.036 41.8485 137.342 41.6136C137.649 41.375 137.882 41.0436 138.041 40.6193C138.2 40.1951 138.28 39.7008 138.28 39.1364C138.28 38.572 138.2 38.0814 138.041 37.6648C137.886 37.2481 137.655 36.9242 137.348 36.6932C137.045 36.4621 136.672 36.3466 136.229 36.3466C135.77 36.3466 135.388 36.4659 135.081 36.7045C134.774 36.9432 134.543 37.2727 134.388 37.6932C134.232 38.1136 134.155 38.5947 134.155 39.1364C134.155 39.6818 134.232 40.1686 134.388 40.5966C134.547 41.0208 134.78 41.3561 135.087 41.6023C135.397 41.8447 135.778 41.9659 136.229 41.9659ZM145.006 43.6761C144.453 43.6761 143.955 43.5777 143.511 43.3807C143.072 43.1799 142.723 42.8845 142.466 42.4943C142.212 42.1042 142.085 41.6231 142.085 41.0511C142.085 40.5587 142.176 40.1515 142.358 39.8295C142.54 39.5076 142.788 39.25 143.102 39.0568C143.417 38.8636 143.771 38.7178 144.165 38.6193C144.563 38.517 144.973 38.4432 145.398 38.3977C145.909 38.3447 146.324 38.2973 146.642 38.2557C146.96 38.2102 147.191 38.142 147.335 38.0511C147.483 37.9564 147.557 37.8106 147.557 37.6136V37.5795C147.557 37.1515 147.43 36.8201 147.176 36.5852C146.922 36.3504 146.557 36.233 146.08 36.233C145.576 36.233 145.176 36.3428 144.881 36.5625C144.589 36.7822 144.392 37.0417 144.29 37.3409L142.369 37.0682C142.521 36.5379 142.771 36.0947 143.119 35.7386C143.468 35.3788 143.894 35.1098 144.398 34.9318C144.902 34.75 145.458 34.6591 146.068 34.6591C146.489 34.6591 146.907 34.7083 147.324 34.8068C147.741 34.9053 148.121 35.0682 148.466 35.2955C148.811 35.5189 149.087 35.8239 149.295 36.2102C149.508 36.5966 149.614 37.0795 149.614 37.6591V43.5H147.636V42.3011H147.568C147.443 42.5436 147.267 42.7708 147.04 42.983C146.816 43.1913 146.534 43.3598 146.193 43.4886C145.856 43.6136 145.46 43.6761 145.006 43.6761ZM145.54 42.1648C145.953 42.1648 146.311 42.0833 146.614 41.9205C146.917 41.7538 147.15 41.5341 147.312 41.2614C147.479 40.9886 147.562 40.6913 147.562 40.3693V39.3409C147.498 39.3939 147.388 39.4432 147.233 39.4886C147.081 39.5341 146.911 39.5739 146.722 39.608C146.532 39.642 146.345 39.6723 146.159 39.6989C145.973 39.7254 145.813 39.7481 145.676 39.767C145.369 39.8087 145.095 39.8769 144.852 39.9716C144.61 40.0663 144.419 40.1989 144.278 40.3693C144.138 40.536 144.068 40.7519 144.068 41.017C144.068 41.3958 144.206 41.6818 144.483 41.875C144.759 42.0682 145.112 42.1648 145.54 42.1648ZM156.04 34.7727V36.3636H151.023V34.7727H156.04ZM152.261 32.6818H154.318V40.875C154.318 41.1515 154.36 41.3636 154.443 41.5114C154.53 41.6553 154.644 41.7538 154.784 41.8068C154.924 41.8598 155.08 41.8864 155.25 41.8864C155.379 41.8864 155.496 41.8769 155.602 41.858C155.712 41.839 155.795 41.822 155.852 41.8068L156.199 43.4148C156.089 43.4527 155.932 43.4943 155.727 43.5398C155.527 43.5852 155.28 43.6117 154.989 43.6193C154.473 43.6345 154.009 43.5568 153.597 43.3864C153.184 43.2121 152.856 42.9432 152.614 42.5795C152.375 42.2159 152.258 41.7614 152.261 41.2159V32.6818ZM161.53 43.6705C160.655 43.6705 159.899 43.4886 159.263 43.125C158.63 42.7576 158.143 42.2386 157.803 41.5682C157.462 40.8939 157.291 40.1004 157.291 39.1875C157.291 38.2898 157.462 37.5019 157.803 36.8239C158.147 36.142 158.628 35.6117 159.246 35.233C159.863 34.8504 160.589 34.6591 161.422 34.6591C161.96 34.6591 162.467 34.7462 162.945 34.9205C163.426 35.0909 163.85 35.3561 164.217 35.7159C164.589 36.0758 164.88 36.5341 165.092 37.0909C165.304 37.6439 165.411 38.303 165.411 39.0682V39.6989H158.257V38.3125H163.439C163.435 37.9186 163.35 37.5682 163.183 37.2614C163.017 36.9508 162.784 36.7064 162.484 36.5284C162.189 36.3504 161.844 36.2614 161.45 36.2614C161.03 36.2614 160.661 36.3636 160.342 36.5682C160.024 36.7689 159.776 37.0341 159.598 37.3636C159.424 37.6894 159.335 38.0473 159.331 38.4375V39.6477C159.331 40.1553 159.424 40.5909 159.609 40.9545C159.795 41.3144 160.054 41.5909 160.388 41.7841C160.721 41.9735 161.111 42.0682 161.558 42.0682C161.857 42.0682 162.128 42.0265 162.371 41.9432C162.613 41.8561 162.823 41.7292 163.001 41.5625C163.179 41.3958 163.314 41.1894 163.405 40.9432L165.325 41.1591C165.204 41.6667 164.973 42.1098 164.632 42.4886C164.295 42.8636 163.863 43.1553 163.337 43.3636C162.81 43.5682 162.208 43.6705 161.53 43.6705Z" fill="#EFF3F1"/>
</svg>
