<svg width="359" height="286" viewBox="0 0 359 286" fill="none" xmlns="http://www.w3.org/2000/svg">
<g clip-path="url(#clip0_26_450)">
<path d="M315.353 277.518L307.89 277.517L304.34 248.731L315.355 248.732L315.353 277.518Z" fill="#FFB6B6"/>
<path d="M315.616 285.304L292.666 285.303V285.013C292.666 280.079 296.665 276.08 301.598 276.08L305.791 272.9L313.613 276.081L315.616 276.081L315.616 285.304Z" fill="#2F2E41"/>
<path d="M282.266 277.518L274.802 277.517L271.252 248.731L282.267 248.732L282.266 277.518Z" fill="#FFB6B6"/>
<path d="M282.528 285.304L259.578 285.303V285.013C259.578 280.079 263.577 276.08 268.511 276.08L272.703 272.9L280.525 276.081L282.528 276.081L282.528 285.304Z" fill="#2F2E41"/>
<path d="M278.709 116.867L321.767 117.773C321.767 117.773 329.508 130.464 323.598 148.367L324.26 153.353L321.541 161.058L320.181 184.626L321.541 188.252L320.634 195.051C320.634 195.051 324.26 239.922 315.195 262.584L304.317 262.131L300.238 203.004L302.504 198.677L302.051 196.864L296.612 169.669L291.173 183.72V191.527L286.188 197.317C286.188 197.317 288.001 250.8 283.015 261.677H270.836L266.245 189.159L270.778 147.007L269.871 144.288L271.231 142.928L270.324 138.396L278.709 116.867Z" fill="#2F2E41"/>
<path d="M297.065 34.1499L310.209 30.9772L313.835 39.5888C313.835 39.5888 332.595 49.5601 333.502 63.1573C333.502 63.1573 336.044 74.0351 333.778 79.0208C331.512 84.0064 321.994 99.8699 321.994 99.8699C321.994 99.8699 330.605 127.518 328.339 128.877C326.073 130.237 272.137 127.518 272.137 124.798C272.137 122.079 281.113 93.5245 281.113 93.5245L283.015 44.5744L295.252 40.042L297.065 34.1499Z" fill="#3F3D56"/>
<path d="M332.107 145.722C329.356 144.336 328.249 140.982 329.636 138.231C329.775 137.954 329.939 137.699 330.116 137.456L322.802 87.3107L332.928 87.6346L338.225 136.493C340.145 138.122 340.781 140.904 339.598 143.251C338.212 146.002 334.858 147.108 332.107 145.722Z" fill="#FFB6B6"/>
<path d="M236.028 122.055C234.921 119.181 236.353 115.952 239.228 114.845C239.517 114.733 239.81 114.654 240.104 114.593L268.358 72.525L275.644 79.5647L246.759 119.325C247.088 121.821 245.691 124.31 243.239 125.255C240.364 126.362 237.136 124.93 236.028 122.055Z" fill="#FFB6B6"/>
<path d="M313.656 74.6626C310.795 64.8338 315.547 54.8059 325.783 54.8544C328.742 54.8684 331.041 55.7269 331.678 58.1035C333.907 66.4214 335.123 78.9773 335.123 78.9773L337.768 92.3456L336.166 95.1213L339.506 104.08L337.886 108.318L337.536 129.962L329.378 129.509L320.389 113.009L316.951 110.965C316.951 110.965 319.711 84.2872 314.221 76.606L313.656 74.6626Z" fill="#3F3D56"/>
<path d="M277.112 50.4737C281.882 41.4165 294.095 39.2711 301.425 46.4176C303.543 48.4831 304.6 50.6976 303.407 52.8496C299.232 60.3816 289.555 68.4912 289.555 68.4912L277.638 87.6494L274.558 88.5329L270.736 97.2972L262.547 106.925L251.701 112.645L245.355 106.3L246.703 98.1431L263.032 76.3859C263.032 76.3859 274.781 61.6034 276.169 52.2645L277.112 50.4737Z" fill="#3F3D56"/>
<path d="M299.563 31.5011C299.863 31.5371 300.163 31.5642 300.46 31.5778C301.387 31.6286 302.302 31.5758 303.184 31.4263C305.864 30.9968 308.298 29.7275 310.177 27.8662C312.163 25.9021 313.522 23.2807 313.889 20.2963C314.75 13.252 309.734 6.83507 302.689 5.97433C295.746 5.12095 289.417 9.97724 288.407 16.8599C288.391 16.9664 288.374 17.0685 288.363 17.1746C287.503 24.2234 292.514 30.6363 299.563 31.5011Z" fill="#FFB6B6"/>
<path d="M285.51 16.3883C287.334 17.2907 290.316 14.4537 291.458 16.086C291.643 15.7332 291.848 15.3921 292.051 15.0695C292.234 14.7808 292.496 14.1646 292.799 14.0591C292.415 14.9847 292.5 16.2383 292.898 17.3123C294.698 17.9849 297.054 16.4961 298.72 14.7351C301.336 11.974 305.608 19.0545 304.598 22.7187C305.883 21.1491 308.673 22.0344 309.618 23.8291C310.562 25.6193 308.966 27.0537 308.625 29.0506L311.202 28.7233C312.827 27.1399 312.714 24.4717 314.053 22.6365C316.289 19.5652 317.155 16.4314 315.474 13.2617C313.983 10.459 313.844 6.83168 311.108 5.21584C312.303 4.63144 308.053 5.54441 309.188 3.63993C310.328 1.73944 304.25 1.50877 303.853 2.52694C302.116 0.448126 300.364 -0.922482 298.228 0.743247C296.129 2.38206 296.346 4.10463 293.882 3.95026C292.725 3.87861 292.852 6.03483 292.165 6.9749C291.481 7.90995 288.824 8.51021 288.695 8.41015C287.993 7.8611 285.606 12.5351 285.606 12.5351C285.606 12.5351 283.67 15.4738 285.51 16.3883Z" fill="#2F2E41"/>
<path d="M124.678 97.9671C167.856 97.9671 202.859 132.97 202.859 176.147C202.859 219.325 167.856 254.328 124.678 254.328C81.5006 254.328 21.7443 211.518 46.4982 176.147C71.252 140.776 81.5006 97.9671 124.678 97.9671Z" fill="#F2F2F2"/>
<path d="M229.317 101.686C228.616 101.686 228.045 102.256 228.045 102.957V143.636C228.045 144.338 228.616 144.908 229.317 144.908C230.018 144.908 230.588 144.338 230.588 143.636V102.957C230.588 102.256 230.018 101.686 229.317 101.686Z" fill="#3F3D56"/>
<path d="M15.7512 71.1768C15.0501 71.1768 14.48 71.7469 14.48 72.448V82.6178C14.48 83.3189 15.0501 83.889 15.7512 83.889C16.4523 83.889 17.0224 83.3189 17.0224 82.6178V72.448C17.0224 71.7469 16.4523 71.1768 15.7512 71.1768Z" fill="#3F3D56"/>
<path d="M15.7512 101.686C15.0501 101.686 14.48 102.256 14.48 102.957V122.661C14.48 123.362 15.0501 123.933 15.7512 123.933C16.4523 123.933 17.0224 123.362 17.0224 122.661V102.957C17.0224 102.256 16.4523 101.686 15.7512 101.686Z" fill="#3F3D56"/>
<path d="M15.7512 129.653C15.0501 129.653 14.48 130.223 14.48 130.924V150.628C14.48 151.329 15.0501 151.899 15.7512 151.899C16.4523 151.899 17.0224 151.329 17.0224 150.628V130.924C17.0224 130.223 16.4523 129.653 15.7512 129.653Z" fill="#3F3D56"/>
<path d="M129.763 31.1332C129.062 31.1332 128.492 31.7034 128.492 32.4045V52.1084C128.492 52.8095 129.062 53.3796 129.763 53.3796C130.464 53.3796 131.034 52.8095 131.034 52.1084V32.4045C131.034 31.7034 130.464 31.1332 129.763 31.1332Z" fill="#3F3D56"/>
<path d="M324.513 274.971C325.826 275.053 326.551 273.422 325.558 272.471L325.459 272.078C325.472 272.047 325.485 272.015 325.498 271.984C326.826 268.817 331.327 268.839 332.644 272.01C333.812 274.825 335.3 277.644 335.666 280.62C335.831 281.934 335.757 283.272 335.465 284.561C338.204 278.58 339.645 272.048 339.645 265.48C339.645 263.829 339.554 262.179 339.369 260.533C339.218 259.186 339.008 257.848 338.737 256.522C337.272 249.354 334.098 242.527 329.521 236.824C327.32 235.622 325.485 233.741 324.377 231.488C323.979 230.675 323.667 229.8 323.519 228.909C323.769 228.942 324.463 225.128 324.274 224.894C324.623 224.365 325.248 224.102 325.629 223.585C327.525 221.015 330.136 221.464 331.5 224.956C334.412 226.426 334.44 228.864 332.653 231.208C331.516 232.7 331.36 234.718 330.362 236.315C330.465 236.447 330.572 236.574 330.674 236.705C332.557 239.119 334.184 241.714 335.557 244.44C335.169 241.41 335.741 237.761 336.717 235.408C337.829 232.728 339.911 230.47 341.745 228.153C343.948 225.369 348.466 226.584 348.854 230.112C348.858 230.147 348.862 230.181 348.865 230.215C348.593 230.369 348.326 230.532 348.065 230.704C346.578 231.688 347.092 233.993 348.854 234.265L348.894 234.271C348.795 235.252 348.627 236.225 348.381 237.182C350.734 246.281 345.654 249.595 338.401 249.744C338.241 249.826 338.085 249.908 337.924 249.986C338.659 252.055 339.246 254.178 339.682 256.329C340.072 258.23 340.343 260.151 340.494 262.08C340.683 264.515 340.667 266.962 340.462 269.392L340.474 269.306C340.995 266.629 342.449 264.129 344.559 262.397C347.702 259.814 352.143 258.863 355.535 256.788C357.167 255.789 359.259 257.08 358.974 258.972L358.96 259.063C358.455 259.268 357.963 259.506 357.486 259.773C357.214 259.927 356.947 260.09 356.686 260.263C355.199 261.246 355.713 263.551 357.475 263.823L357.515 263.829C357.544 263.833 357.568 263.838 357.597 263.842C356.731 265.898 355.524 267.807 354.013 269.454C352.542 277.397 346.223 278.151 339.464 275.837H339.46C338.721 279.056 337.641 282.201 336.254 285.198H324.8C324.759 285.07 324.722 284.939 324.685 284.812C325.744 284.877 326.811 284.816 327.854 284.623C327.004 283.58 326.154 282.529 325.305 281.486C325.284 281.466 325.268 281.445 325.251 281.425C324.82 280.891 324.385 280.362 323.954 279.828L323.954 279.827C323.927 278.189 324.124 276.556 324.513 274.971Z" fill="#F2F2F2"/>
<path d="M0 285.232C0 285.651 0.336893 285.988 0.756416 285.988H358.154C358.574 285.988 358.911 285.651 358.911 285.232C358.911 284.812 358.574 284.475 358.154 284.475H0.756416C0.336893 284.475 0 284.812 0 285.232Z" fill="#CCCCCC"/>
<path d="M90.4953 170.878H46.4978V169.606H90.4953C94.3173 169.606 97.4268 166.497 97.4268 162.674V132.926H98.698V162.674C98.698 167.197 95.0184 170.878 90.4953 170.878Z" fill="#6C63FF"/>
<path d="M174.447 235.364H74.3789V236.635H174.447V235.364Z" fill="#6C63FF"/>
<path d="M237.937 162.377H184.487C181.603 162.377 179.256 160.031 179.256 157.146V104.349C179.256 101.464 181.603 99.1174 184.487 99.1174H237.937C240.822 99.1174 243.168 101.464 243.168 104.349V157.146C243.168 160.031 240.822 162.377 237.937 162.377Z" fill="#E6E6E6"/>
<path d="M194.441 100.676C186.915 100.676 180.814 106.777 180.814 114.303V156.026C180.814 158.673 182.96 160.819 185.607 160.819H218.29C231.169 160.819 241.609 150.378 241.609 137.5V105.469C241.609 102.822 239.463 100.676 236.816 100.676L194.441 100.676Z" fill="white"/>
<path d="M225.528 116.019H196.785C196.237 116.019 195.791 115.573 195.791 115.025C195.791 114.476 196.237 114.03 196.785 114.03H225.528C226.076 114.03 226.522 114.476 226.522 115.025C226.522 115.573 226.076 116.019 225.528 116.019Z" fill="#E6E6E6"/>
<path d="M225.528 137.226H196.785C196.237 137.226 195.791 136.78 195.791 136.231C195.791 135.683 196.237 135.237 196.785 135.237H225.528C226.076 135.237 226.522 135.683 226.522 136.231C226.522 136.78 226.076 137.226 225.528 137.226Z" fill="#E6E6E6"/>
<path d="M237.2 126.629H185.113C184.565 126.629 184.119 126.183 184.119 125.635C184.119 125.087 184.565 124.641 185.113 124.641H237.2C237.748 124.641 238.194 125.087 238.194 125.635C238.194 126.183 237.748 126.629 237.2 126.629Z" fill="#E6E6E6"/>
<path d="M237.732 145.848H218.915C218.367 145.848 217.921 145.402 217.921 144.853C217.921 144.305 218.367 143.859 218.915 143.859H237.732C238.28 143.859 238.726 144.305 238.726 144.853C238.726 145.402 238.28 145.848 237.732 145.848Z" fill="#E6E6E6"/>
<path d="M125.667 267.574H83.2246C80.9342 267.574 79.0708 265.71 79.0708 263.42V221.495C79.0708 219.205 80.9342 217.341 83.2246 217.341H125.667C127.958 217.341 129.821 219.205 129.821 221.495V263.42C129.821 265.71 127.958 267.574 125.667 267.574Z" fill="#E6E6E6"/>
<path d="M91.129 218.579C85.153 218.579 80.3086 223.423 80.3086 229.399V262.531C80.3086 264.632 82.0125 266.336 84.1143 266.336H110.067C120.293 266.336 128.584 258.046 128.584 247.82V222.385C128.584 220.283 126.88 218.579 124.778 218.579L91.129 218.579Z" fill="white"/>
<path d="M115.814 230.763H92.9907C92.5552 230.763 92.2009 230.408 92.2009 229.973C92.2009 229.537 92.5552 229.183 92.9907 229.183H115.814C116.25 229.183 116.604 229.537 116.604 229.973C116.604 230.408 116.25 230.763 115.814 230.763Z" fill="#E6E6E6"/>
<path d="M115.814 247.602H92.9907C92.5552 247.602 92.2009 247.248 92.2009 246.812C92.2009 246.377 92.5552 246.023 92.9907 246.023H115.814C116.25 246.023 116.604 246.377 116.604 246.812C116.604 247.248 116.25 247.602 115.814 247.602Z" fill="#E6E6E6"/>
<path d="M125.082 239.188H83.7221C83.2867 239.188 82.9324 238.834 82.9324 238.398C82.9324 237.963 83.2867 237.609 83.7221 237.609H125.082C125.518 237.609 125.872 237.963 125.872 238.398C125.872 238.834 125.518 239.188 125.082 239.188Z" fill="#E6E6E6"/>
<path d="M125.504 254.448H110.562C110.127 254.448 109.772 254.094 109.772 253.659C109.772 253.223 110.127 252.869 110.562 252.869H125.504C125.939 252.869 126.293 253.223 126.293 253.659C126.293 254.094 125.939 254.448 125.504 254.448Z" fill="#E6E6E6"/>
<path d="M96.0024 132.605H64.6142C62.9203 132.605 61.5422 131.227 61.5422 129.533V98.5277C61.5422 96.8338 62.9203 95.4558 64.6142 95.4558H96.0024C97.6963 95.4558 99.0743 96.8338 99.0743 98.5277V129.533C99.0743 131.227 97.6963 132.605 96.0024 132.605Z" fill="#E6E6E6"/>
<path d="M70.4594 96.371C66.04 96.371 62.4573 99.9537 62.4573 104.373V128.875C62.4573 130.43 63.7174 131.69 65.2718 131.69H84.4648C92.0278 131.69 98.1588 125.559 98.1588 117.996V99.1855C98.1588 97.6311 96.8987 96.3711 95.3443 96.3711L70.4594 96.371Z" fill="white"/>
<path d="M88.7139 105.381H71.8348C71.5128 105.381 71.2507 105.119 71.2507 104.797C71.2507 104.475 71.5128 104.213 71.8348 104.213H88.7139C89.0359 104.213 89.2978 104.475 89.2978 104.797C89.2978 105.119 89.0359 105.381 88.7139 105.381Z" fill="#E6E6E6"/>
<path d="M88.7139 117.835H71.8348C71.5128 117.835 71.2507 117.573 71.2507 117.251C71.2507 116.929 71.5128 116.667 71.8348 116.667H88.7139C89.0359 116.667 89.2978 116.929 89.2978 117.251C89.2978 117.573 89.0359 117.835 88.7139 117.835Z" fill="#E6E6E6"/>
<path d="M95.5684 111.612H64.9808C64.6588 111.612 64.3967 111.35 64.3967 111.028C64.3967 110.706 64.6588 110.444 64.9808 110.444H95.5684C95.8904 110.444 96.1523 110.706 96.1523 111.028C96.1523 111.35 95.8904 111.612 95.5684 111.612Z" fill="#E6E6E6"/>
<path d="M95.882 122.898H84.8321C84.5101 122.898 84.248 122.636 84.248 122.314C84.248 121.992 84.5101 121.73 84.8321 121.73H95.882C96.204 121.73 96.4659 121.992 96.4659 122.314C96.4659 122.636 96.204 122.898 95.882 122.898Z" fill="#E6E6E6"/>
<path d="M187.605 171.698C191.115 171.698 193.961 168.852 193.961 165.342C193.961 161.832 191.115 158.986 187.605 158.986C184.094 158.986 181.249 161.832 181.249 165.342C181.249 168.852 184.094 171.698 187.605 171.698Z" fill="#6C63FF"/>
<path d="M97.9823 139.282C101.493 139.282 104.338 136.436 104.338 132.926C104.338 129.415 101.493 126.57 97.9823 126.57C94.472 126.57 91.6262 129.415 91.6262 132.926C91.6262 136.436 94.472 139.282 97.9823 139.282Z" fill="#6C63FF"/>
<path d="M128.492 226.361C132.002 226.361 134.848 223.515 134.848 220.005C134.848 216.494 132.002 213.648 128.492 213.648C124.981 213.648 122.135 216.494 122.135 220.005C122.135 223.515 124.981 226.361 128.492 226.361Z" fill="#6C63FF"/>
<path d="M142.222 50.1202C146.597 50.1202 150.143 46.6482 150.143 42.3653C150.143 38.0823 146.597 34.6104 142.222 34.6104C137.847 34.6104 134.3 38.0823 134.3 42.3653C134.3 46.6482 137.847 50.1202 142.222 50.1202Z" fill="#F2F2F2"/>
<path d="M205.727 39.7121H163.087C161.625 39.7121 160.434 38.5219 160.434 37.0591C160.434 35.5963 161.625 34.4061 163.087 34.4061H205.727C207.19 34.4061 208.38 35.5963 208.38 37.0591C208.38 38.5219 207.19 39.7121 205.727 39.7121Z" fill="#F2F2F2"/>
<path d="M239.004 48.6914H163.087C161.625 48.6914 160.434 47.5012 160.434 46.0384C160.434 44.5756 161.625 43.3854 163.087 43.3854H239.004C240.466 43.3854 241.657 44.5756 241.657 46.0384C241.657 47.5012 240.466 48.6914 239.004 48.6914Z" fill="#F2F2F2"/>
<path d="M27.5585 82.7128C30.39 82.7128 32.6854 80.4657 32.6854 77.6939C32.6854 74.9221 30.39 72.675 27.5585 72.675C24.727 72.675 22.4316 74.9221 22.4316 77.6939C22.4316 80.4657 24.727 82.7128 27.5585 82.7128Z" fill="#F2F2F2"/>
<path d="M68.6591 75.9768H41.0632C40.1165 75.9768 39.3462 75.2065 39.3462 74.2598C39.3462 73.3131 40.1165 72.5428 41.0632 72.5428H68.6591C69.6059 72.5428 70.3761 73.3131 70.3761 74.2598C70.3761 75.2065 69.6058 75.9768 68.6591 75.9768Z" fill="#F2F2F2"/>
<path d="M90.1951 81.7883H41.0632C40.1165 81.7883 39.3462 81.018 39.3462 80.0713C39.3462 79.1246 40.1165 78.3543 41.0632 78.3543H90.1951C91.1418 78.3543 91.9121 79.1246 91.9121 80.0713C91.9121 81.018 91.1418 81.7883 90.1951 81.7883Z" fill="#F2F2F2"/>
<path d="M181.378 261.32C184.21 261.32 186.505 259.073 186.505 256.301C186.505 253.529 184.21 251.282 181.378 251.282C178.547 251.282 176.251 253.529 176.251 256.301C176.251 259.073 178.547 261.32 181.378 261.32Z" fill="#F2F2F2"/>
<path d="M222.479 254.584H194.883C193.936 254.584 193.166 253.813 193.166 252.867C193.166 251.92 193.936 251.15 194.883 251.15H222.479C223.425 251.15 224.196 251.92 224.196 252.867C224.196 253.813 223.425 254.584 222.479 254.584Z" fill="#F2F2F2"/>
<path d="M244.015 260.395H194.883C193.936 260.395 193.166 259.625 193.166 258.678C193.166 257.731 193.936 256.961 194.883 256.961H244.015C244.961 256.961 245.732 257.731 245.732 258.678C245.732 259.625 244.961 260.395 244.015 260.395Z" fill="#F2F2F2"/>
<path d="M119.752 99.1365H118.481V159.52H119.752V99.1365Z" fill="#E6E6E6"/>
<path d="M119.116 163.333C121.223 163.333 122.93 161.626 122.93 159.52C122.93 157.413 121.223 155.706 119.116 155.706C117.01 155.706 115.303 157.413 115.303 159.52C115.303 161.626 117.01 163.333 119.116 163.333Z" fill="#E6E6E6"/>
<path d="M176.957 207.191C179.063 207.191 180.771 205.483 180.771 203.377C180.771 201.271 179.063 199.563 176.957 199.563C174.851 199.563 173.143 201.271 173.143 203.377C173.143 205.483 174.851 207.191 176.957 207.191Z" fill="#E6E6E6"/>
<path d="M73.988 155.07C76.0942 155.07 77.8017 153.363 77.8017 151.257C77.8017 149.15 76.0942 147.443 73.988 147.443C71.8818 147.443 70.1743 149.15 70.1743 151.257C70.1743 153.363 71.8818 155.07 73.988 155.07Z" fill="#E6E6E6"/>
<path d="M72.5791 151.263L51.7229 151.894L51.7614 153.165L72.6176 152.534L72.5791 151.263Z" fill="#E6E6E6"/>
<path d="M207.983 217.977H176.357V203.377H177.629V216.705H207.983V217.977Z" fill="#E6E6E6"/>
<path d="M72.4226 196.713C74.5288 196.713 76.2362 195.005 76.2362 192.899C76.2362 190.793 74.5288 189.085 72.4226 189.085C70.3163 189.085 68.6089 190.793 68.6089 192.899C68.6089 195.005 70.3163 196.713 72.4226 196.713Z" fill="#E6E6E6"/>
<path d="M103.071 207.499H71.4456V192.899H72.7168V206.227H103.071V207.499Z" fill="#E6E6E6"/>
<path d="M199.839 178.388H47.939V179.659H199.839V178.388Z" fill="#E6E6E6"/>
</g>
<defs>
<clipPath id="clip0_26_450">
<rect width="359" height="285.988" fill="white"/>
</clipPath>
</defs>
</svg>
